<svg id="圖層_1" data-name="圖層 1" xmlns="http://www.w3.org/2000/svg" viewBox="0 0 17.243 19.665"><defs><style>.cls-1{fill:#344732;}</style></defs><title>birthday_icon</title><path class="cls-1" d="M15.554,2.421H14.119V.849a.845.845,0,1,0-1.689,0V2.421H5.155V.849a.845.845,0,1,0-1.689,0V2.421H1.689A1.7,1.7,0,0,0,0,4.111V17.976a1.7,1.7,0,0,0,1.689,1.689H15.554a1.7,1.7,0,0,0,1.689-1.689V4.111A1.7,1.7,0,0,0,15.554,2.421ZM12.43,2.48h1.689V4.072a.845.845,0,1,1-1.689,0Zm-8.963,0H5.155V4.072a.845.845,0,1,1-1.689,0Zm12.957,15.5a.879.879,0,0,1-.869.879H1.689a.888.888,0,0,1-.879-.879V7.235H16.423Z"/><rect class="cls-1" x="2.207" y="8.426" width="2.334" height="2.324"/><rect class="cls-1" x="5.644" y="8.426" width="2.324" height="2.324"/><rect class="cls-1" x="9.071" y="8.426" width="2.334" height="2.324"/><rect class="cls-1" x="12.508" y="8.426" width="2.324" height="2.324"/><rect class="cls-1" x="2.207" y="11.854" width="2.334" height="2.324"/><path class="cls-1" d="M2.207,11.854v2.324H4.54V11.854Z"/><rect class="cls-1" x="5.644" y="11.854" width="2.324" height="2.324"/><rect class="cls-1" x="9.071" y="11.854" width="2.334" height="2.324"/><rect class="cls-1" x="12.508" y="11.854" width="2.324" height="2.324"/><rect class="cls-1" x="2.207" y="15.291" width="2.334" height="2.324"/><rect class="cls-1" x="5.644" y="15.291" width="2.324" height="2.324"/><rect class="cls-1" x="9.075" y="15.288" width="2.328" height="2.326"/><rect class="cls-1" x="12.509" y="15.288" width="2.326" height="2.326"/></svg>