<?xml version="1.0" encoding="utf-8"?>
<!-- Generator: Adobe Illustrator 21.1.0, SVG Export Plug-In . SVG Version: 6.00 Build 0)  -->
<svg version="1.1" id="圖層_1" xmlns="http://www.w3.org/2000/svg" xmlns:xlink="http://www.w3.org/1999/xlink" x="0px" y="0px"
	 viewBox="0 0 19 19" style="enable-background:new 0 0 19 19;" xml:space="preserve">
<style type="text/css">
	.st0{fill:#FFFFFF;}
</style>
<g>
	<path class="st0" d="M9.5,0C4.2,0,0,4.2,0,9.5S4.2,19,9.5,19S19,14.8,19,9.5S14.8,0,9.5,0z M15.7,10.7l-5,5c-0.6,0.7-1.7,0.7-2.4,0
		c-0.6-0.6-0.6-1.7,0-2.3c0.3-0.3,2.1-2.2,2.1-2.2h-6c-0.9,0-1.7-0.7-1.7-1.7c0-0.9,0.7-1.7,1.7-1.7h6c0,0-1.8-1.8-2.2-2.1
		C7.7,5,7.7,4,8.3,3.3c0.7-0.6,1.7-0.6,2.4,0l5,5C16.3,9,16.3,10,15.7,10.7z"/>
</g>
</svg>
