<?xml version="1.0" encoding="utf-8"?>
<!-- Generator: Adobe Illustrator 21.1.0, SVG Export Plug-In . SVG Version: 6.00 Build 0)  -->
<svg version="1.1" id="圖層_1" xmlns="http://www.w3.org/2000/svg" xmlns:xlink="http://www.w3.org/1999/xlink" x="0px" y="0px"
	 viewBox="0 0 35.6 29.5" style="enable-background:new 0 0 35.6 29.5;" xml:space="preserve">
<style type="text/css">
	.st0{fill:#4D4C4C;}
</style>
<path class="st0" d="M6.8,6.8c0,0.1,0,0.2,0,0.2l3.6,13L6.8,6.8z"/>
<path class="st0" d="M11.7,20.4c0,0-0.1,0-0.1,0c-0.1,0-0.1,0-0.2-0.1c-0.1,0-0.1-0.1-0.2-0.2c0,0-0.1-0.1-0.1-0.2c0,0,0,0,0-0.1
	L6.3,2.3L1.4,2.1C1,2.1,0.7,1.8,0.7,1.4C0.7,1,1,0.7,1.4,0.7L6.8,1c0.3,0,0.5,0.2,0.6,0.5L8.7,6h25.5c0.2,0,0.4,0.1,0.5,0.3
	c0.1,0.2,0.2,0.4,0.1,0.6l-3.6,13c-0.1,0.3-0.4,0.5-0.7,0.5H11.7z M12.3,19h17.8l3.2-11.7H9L12.3,19z"/>
<path class="st0" d="M1.4,0C0.6,0,0,0.6,0,1.3c0,0.8,0.6,1.4,1.3,1.5L5.7,3l1.1,3.8l3.6,13.3c0,0.1,0.1,0.2,0.1,0.2
	c0.1,0.1,0.2,0.3,0.2,0.4c0.1,0.1,0.2,0.2,0.4,0.3c0.1,0.1,0.3,0.1,0.4,0.1c0.1,0,0.2,0,0.2,0h18.9c0.6,0,1.2-0.4,1.3-1l3.6-13
	c0.1-0.4,0-0.9-0.2-1.2c-0.3-0.3-0.7-0.6-1.1-0.6H9.2l-1.1-4c-0.2-0.6-0.7-1-1.3-1L1.5,0C1.4,0,1.4,0,1.4,0 M12.8,18.3l-0.3-1.1
	L10,8.1h22.4l-2.8,10.2H12.8z"/>
<polygon class="st0" points="10,8.1 10,8.1 12.5,17.2 "/>
<path class="st0" d="M15.1,28.7c-1.7,0-3.1-1.4-3.1-3.1c0-1.7,1.4-3.1,3.1-3.1c1.7,0,3.1,1.4,3.1,3.1C18.2,27.3,16.8,28.7,15.1,28.7
	"/>
<path class="st0" d="M15.1,23.2c1.3,0,2.4,1.1,2.4,2.4c0,1.3-1.1,2.4-2.4,2.4c-1.3,0-2.4-1.1-2.4-2.4C12.7,24.3,13.7,23.2,15.1,23.2
	 M15.1,21.8c-2.1,0-3.9,1.7-3.9,3.9c0,2.1,1.7,3.9,3.9,3.9c2.1,0,3.8-1.7,3.8-3.9C18.9,23.5,17.2,21.8,15.1,21.8"/>
<path class="st0" d="M26.8,28.7c-1.7,0-3.1-1.4-3.1-3.1c0-1.7,1.4-3.1,3.1-3.1c1.7,0,3.1,1.4,3.1,3.1C29.9,27.3,28.5,28.7,26.8,28.7
	"/>
<path class="st0" d="M26.8,23.2c1.3,0,2.4,1.1,2.4,2.4c0,1.3-1.1,2.4-2.4,2.4c-1.3,0-2.4-1.1-2.4-2.4C24.4,24.3,25.4,23.2,26.8,23.2
	 M26.8,21.8c-2.1,0-3.9,1.7-3.9,3.9c0,2.1,1.7,3.9,3.9,3.9c2.1,0,3.9-1.7,3.9-3.9C30.6,23.5,28.9,21.8,26.8,21.8"/>
</svg>
