<?xml version="1.0" encoding="utf-8"?>
<!-- Generator: Adobe Illustrator 21.1.0, SVG Export Plug-In . SVG Version: 6.00 Build 0)  -->
<svg version="1.1" id="圖層_1" xmlns="http://www.w3.org/2000/svg" xmlns:xlink="http://www.w3.org/1999/xlink" x="0px" y="0px"
	 viewBox="0 0 28.9 26" style="enable-background:new 0 0 28.9 26;" xml:space="preserve">
<style type="text/css">
	.st0{fill:#FFFFFF;}
</style>
<g>
	<path class="st0" d="M28.3,10.6H24V6.2c0-0.3-0.3-0.6-0.6-0.6h-1.2c-0.3,0-0.6,0.3-0.6,0.6v4.4h-4.4c-0.3,0-0.6,0.3-0.6,0.6v1.2
		c0,0.3,0.3,0.6,0.6,0.6h4.4v4.4c0,0.3,0.3,0.6,0.6,0.6h1.2c0.3,0,0.6-0.3,0.6-0.6V13h4.4c0.3,0,0.6-0.3,0.6-0.6v-1.2
		C28.9,10.8,28.7,10.6,28.3,10.6z"/>
	<path class="st0" d="M13.7,14.4c-0.9-0.7-1.8-1.6-1.8-1.9c0-0.5,0-0.8,1.2-1.7c1.5-1.2,2.4-2.8,2.4-4.5c0-1.5-0.5-2.9-1.3-3.8h0.6
		c0.1,0,0.3,0,0.4-0.1L17,1.1c0.2-0.2,0.3-0.4,0.2-0.7C17.1,0.2,16.9,0,16.6,0H8.9C8.1,0,7.3,0.1,6.4,0.4c-2.8,1-4.8,3.3-4.8,5.8
		c0,3.5,2.7,6.1,6.3,6.2c-0.1,0.3-0.1,0.5-0.1,0.8c0,0.5,0.1,1,0.4,1.5c0,0-0.1,0-0.1,0c-3.4,0-6.5,1.7-7.7,4.2
		c-0.3,0.7-0.5,1.3-0.5,2c0,0.6,0.2,1.2,0.5,1.8C1.2,24,2.8,25,4.9,25.6C6,25.9,7.2,26,8.5,26c1.1,0,2.2-0.1,3.1-0.4
		c3-0.9,5-3.1,5-5.7C16.6,17.4,15.8,15.9,13.7,14.4z M4,20.1c0-1.8,2.3-3.4,4.9-3.4H9c0.6,0,1.1,0.1,1.6,0.3
		c0.2,0.1,0.4,0.2,0.5,0.4c1.2,0.8,2,1.4,2.2,2.2c0.1,0.2,0.1,0.4,0.1,0.7c0,2.2-1.7,3.4-5,3.4C5.9,23.6,4,22,4,20.1z M6.4,3
		c0.4-0.5,0.9-0.7,1.5-0.7l0.1,0c1.7,0,3.3,1.9,3.6,4.2c0.2,1.3-0.1,2.5-0.8,3.2c-0.4,0.5-0.9,0.7-1.6,0.7c0,0,0,0,0,0h0
		c-1.7-0.1-3.3-2-3.6-4.3C5.5,4.9,5.7,3.7,6.4,3z"/>
</g>
</svg>
