<?xml version="1.0" encoding="utf-8"?>
<!-- Generator: Adobe Illustrator 21.1.0, SVG Export Plug-In . SVG Version: 6.00 Build 0)  -->
<svg version="1.1" id="圖層_1" xmlns="http://www.w3.org/2000/svg" xmlns:xlink="http://www.w3.org/1999/xlink" x="0px" y="0px"
	 viewBox="0 0 27.2 27.2" style="enable-background:new 0 0 27.2 27.2;" xml:space="preserve">
<style type="text/css">
	.st0{fill:#FFFFFF;}
</style>
<g>
	<path class="st0" d="M13.6,6.5c-3.8,0-7,3.1-7,7s3.1,7,7,7s7-3.2,7-7S17.4,6.5,13.6,6.5z M13.6,18c-2.5,0-4.5-2-4.5-4.5
		s2-4.5,4.5-4.5s4.5,2,4.5,4.5S16.1,18,13.6,18z"/>
	<circle class="st0" cx="20.9" cy="6.4" r="1.6"/>
	<path class="st0" d="M25,2.2C23.6,0.8,21.6,0,19.2,0H8C3.2,0,0,3.2,0,8v11.2c0,2.4,0.8,4.4,2.3,5.9c1.5,1.4,3.5,2.1,5.7,2.1h11.2
		c2.4,0,4.3-0.8,5.8-2.1c1.5-1.4,2.2-3.5,2.2-5.8V8C27.2,5.6,26.4,3.7,25,2.2z M24.8,19.2c0,1.7-0.6,3.1-1.6,4s-2.4,1.4-4,1.4H8
		c-1.6,0-3-0.5-4-1.4c-1-1-1.5-2.4-1.5-4.1V8c0-1.6,0.5-3,1.5-4C4.9,3,6.4,2.5,8,2.5h11.3c1.6,0,3,0.5,4,1.5c0.9,1,1.5,2.4,1.5,3.9
		V19.2L24.8,19.2z"/>
</g>
</svg>
