<?xml version="1.0" encoding="utf-8"?>
<!-- Generator: Adobe Illustrator 21.1.0, SVG Export Plug-In . SVG Version: 6.00 Build 0)  -->
<svg version="1.1" id="圖層_1" xmlns="http://www.w3.org/2000/svg" xmlns:xlink="http://www.w3.org/1999/xlink" x="0px" y="0px"
	 viewBox="0 0 32 30" style="enable-background:new 0 0 32 30;" xml:space="preserve">
<style type="text/css">
	.st0{fill:#FFFFFF;}
</style>
<g id="Layer_1_2_">
	<g id="line_2_">
		<path class="st0" d="M16,0C7.2,0,0,5.8,0,12.9c0,3.2,1.4,6,3.8,8.3c2.4,2.2,5.7,3.8,9.4,4.4c0.2,0,0.4,0.1,0.5,0.1
			c2.6,0.5,0.3,3.7,1.2,4.4c1,0.8,8.3-4.1,12.7-8.2c0.6-0.5,1.2-1.1,1.7-1.7c0.2-0.2,0.2-0.3,0.3-0.4c1.6-2,2.4-4.2,2.3-6.8
			C32,5.8,24.8,0,16,0z M10.8,16.2c0,0.5-0.4,0.9-0.9,0.9H6.7c-0.5,0-0.9-0.4-0.9-0.9V10c0-0.5,0.4-0.9,0.9-0.9h0.1
			c0.5,0,0.9,0.4,0.9,0.9v5.3H10C10.4,15.3,10.8,15.7,10.8,16.2L10.8,16.2z M13.3,16.2c0,0.5-0.4,0.9-0.9,0.9h-0.1
			c-0.5,0-0.9-0.4-0.9-0.9V10c0-0.5,0.4-0.9,0.9-0.9c0.4,0,0.8,0.4,0.9,0.9V16.2z M20.8,16.2c0,0.2-0.1,0.5-0.2,0.6
			c-0.1,0.1-0.2,0.1-0.2,0.2C20.3,17,20.1,17,20,17h-0.1c-0.1,0-0.2,0-0.3-0.1c-0.1-0.1-0.2-0.2-0.3-0.2l-0.1-0.1l-3-4.1v3.7
			c0,0.5-0.4,0.9-0.9,0.9h-0.1c-0.5,0-0.9-0.4-0.9-0.9v-6.2c0-0.5,0.4-0.9,0.9-0.9h0.1c0.3,0,0.5,0.2,0.7,0.4l3,4.1V10
			c0-0.5,0.4-0.9,0.9-0.9c0.4,0,0.8,0.4,0.9,0.9V16.2z M26.8,10c0,0.5-0.4,0.9-0.9,0.9h-2.3v1.3h2.3c0.5,0,0.9,0.4,0.9,0.9v0.1
			c0,0.5-0.4,0.9-0.9,0.9h-2.3v1.3h2.3c0.5,0,0.9,0.4,0.9,0.9v0.1c0,0.5-0.4,0.9-0.9,0.9h-3.3c-0.5,0-0.9-0.4-0.9-0.9v-6.2
			c0-0.5,0.4-0.9,0.9-0.9h3.3C26.4,9.2,26.8,9.5,26.8,10L26.8,10z"/>
	</g>
</g>
</svg>
