<?xml version="1.0" encoding="utf-8"?>
<!-- Generator: Adobe Illustrator 21.1.0, SVG Export Plug-In . SVG Version: 6.00 Build 0)  -->
<svg version="1.1" id="圖層_1" xmlns="http://www.w3.org/2000/svg" xmlns:xlink="http://www.w3.org/1999/xlink" x="0px" y="0px"
	 viewBox="0 0 137.6 137.6" style="enable-background:new 0 0 137.6 137.6;" xml:space="preserve">
<style type="text/css">
	.st0{fill:#00C300;}
	.st1{fill:#FFFFFF;}
</style>
<g>
	<path class="st0" d="M102.2,137.6H35.4C15.9,137.6,0,121.7,0,102.2V35.4C0,15.9,15.9,0,35.4,0h66.8c19.5,0,35.4,15.9,35.4,35.4
		v66.8C137.6,121.7,121.7,137.6,102.2,137.6z"/>
</g>
<g>
	<g id="Layer_1_3_">
		<g id="line_3_">
			<g>
				<path class="st1" d="M68.8,21.4c-20.4,0-37.1,13.4-37.1,29.8c0,7.3,3.3,14,8.8,19.2c5.5,5.2,13.1,8.8,21.8,10.1
					c0.4,0,0.9,0.2,1.3,0.2c6,1.3,0.7,8.7,2.7,10.1c2.4,1.8,19.2-9.4,29.5-19c1.4-1.3,2.7-2.5,4-4c0.4-0.4,0.5-0.7,0.7-0.9
					c3.6-4.5,5.6-9.8,5.4-15.7C105.9,34.8,89.2,21.4,68.8,21.4z M56.9,58.8c0,1.1-0.9,2-2,2h-7.6c-1.1,0-2-0.9-2-2V44.5
					c0-1.1,0.9-2,2-2h0.2c1.1,0,2,0.9,2,2v12.3h5.4c0.9,0,1.8,0.9,2,1.8V58.8z M62.5,58.8c0,1.1-0.9,2-2,2h-0.2c-1.1,0-2-0.9-2-2
					V44.5c0-1.1,0.9-2,2.2-2c0.9,0,1.8,0.9,2,2V58.8z M80,58.8c0,0.5-0.2,1.1-0.5,1.4c-0.2,0.2-0.4,0.2-0.5,0.4
					c-0.2,0.2-0.5,0.2-0.9,0.2h-0.2c-0.2,0-0.5,0-0.7-0.2c-0.2-0.2-0.5-0.4-0.7-0.5l-0.2-0.2l-7-9.6V59c0,1.1-0.9,2-2,2H67
					c-1.1,0-2-0.9-2-2V44.7c0-1.1,0.9-2,2-2h0.2c0.7,0,1.3,0.4,1.6,0.9l7,9.4v-8.5c0-1.1,0.9-2,2.2-2c0.9,0,1.8,0.9,2,2V58.8z
					 M93.7,44.5c0,1.1-0.9,2-2,2h-5.4v3.1h5.4c1.1,0,2,0.9,2,2v0.2c0,1.1-0.9,2-2,2h-5.4v3.1h5.4c1.1,0,2,0.9,2,2V59
					c0,1.1-0.9,2-2,2h-7.6c-1.1,0-2-0.9-2-2V44.7c0-1.1,0.9-2,2-2h7.6c1.1,0,2,0.7,2,1.6V44.5z"/>
			</g>
		</g>
	</g>
	<g>
		<path class="st1" d="M31.1,103.7c-0.3,0-0.5-0.1-0.7-0.2c-0.1-0.2-0.2-0.4-0.2-0.6c0-0.2,0.1-0.4,0.2-0.6c0.2-0.1,0.4-0.2,0.7-0.2
			h1.5v-1.3c0-0.3,0.1-0.5,0.2-0.7c0.1-0.1,0.3-0.2,0.6-0.2c0.2,0,0.4,0.1,0.6,0.2c0.2,0.2,0.2,0.4,0.2,0.7v1.3h2.1
			c0.5,0,1,0.1,1.3,0.4c0.3,0.3,0.4,0.6,0.4,1.1c0,5.1-0.2,8.4-0.5,9.9c-0.2,0.6-0.4,1.1-0.9,1.4c-0.3,0.3-0.8,0.4-1.4,0.4
			c-0.6,0.1-1.2,0-1.7-0.2c-0.3-0.1-0.5-0.3-0.7-0.4c-0.1-0.2-0.2-0.5-0.1-0.7c0.1-0.6,0.5-0.8,1.2-0.7c0.8,0.2,1.4,0.2,1.7,0
			c0.2-0.2,0.3-0.5,0.4-1c0.2-0.9,0.3-3.2,0.3-6.8c0-0.9-0.1-1.5-0.2-1.6c-0.2-0.1-0.4-0.2-0.7-0.2h-1.2c-0.2,3.1-0.5,5.6-1.1,7.5
			c-0.7,2.5-1.3,3.9-1.9,4.1c-0.2,0.1-0.4,0.1-0.7,0c-0.2-0.1-0.4-0.3-0.4-0.5c-0.1-0.2,0-0.5,0.1-0.7c1.5-3,2.3-6.5,2.4-10.3H31.1z
			 M40.1,114.9c-0.4,0-0.6-0.1-0.8-0.4c-0.2-0.3-0.3-0.6-0.3-1v-11.2c0-0.3,0.1-0.6,0.3-0.8c0.2-0.2,0.5-0.3,0.8-0.3H41h2.7
			c0.4,0,0.7,0.1,1,0.4c0.2,0.2,0.3,0.5,0.4,0.8v11.2c0,0.4-0.1,0.7-0.4,1c-0.3,0.3-0.6,0.4-0.9,0.4H40.1z M41,102.8
			c-0.1,0-0.2,0-0.2,0.1c-0.1,0.1-0.1,0.1-0.1,0.2v9.8c0,0.1,0,0.1,0.1,0.2c0.1,0.1,0.1,0.1,0.2,0.1H43c0.1,0,0.2,0,0.2-0.1
			c0.1-0.1,0.1-0.1,0.1-0.2v-9.8c0-0.1,0-0.2-0.1-0.2c-0.1-0.1-0.1-0.1-0.2-0.1H41z"/>
		<path class="st1" d="M52.6,102.5c-0.3,0-0.5-0.1-0.7-0.2c-0.2-0.2-0.2-0.4-0.2-0.6c0-0.3,0.1-0.5,0.3-0.6c0.2-0.1,0.4-0.2,0.7-0.2
			h5c0.2,0,0.5,0.1,0.7,0.3c0.3,0.2,0.4,0.5,0.5,0.9c0.3,1,0.5,1.9,0.8,2.8c1.1,3.6,2.8,6.6,5.2,9c0.2,0.2,0.3,0.5,0.4,0.7
			c0,0.3-0.1,0.5-0.3,0.7c-0.3,0.2-0.6,0.3-0.8,0.2c-0.2-0.1-0.6-0.4-1-0.8c-2.2-2.6-4-6-5.3-10.4c-1,3-2.4,5.7-4.2,8.2
			c-1.5,2-2.5,3.1-3,3.1c-0.2,0-0.4-0.1-0.6-0.3c-0.2-0.2-0.3-0.4-0.3-0.6c0-0.1,0-0.2,0.1-0.3c0,0,0.6-0.7,1.8-2
			c2.3-2.6,4-5.8,5-9.8H52.6z"/>
		<path class="st1" d="M70.1,110.5c-0.4-0.3-0.6-0.6-0.6-0.9c-0.1-0.3,0-0.6,0.1-0.9c0.5-0.9,0.9-2.4,1.4-4.7h-0.9
			c-0.3,0-0.5-0.1-0.6-0.3c-0.1-0.2-0.2-0.4-0.2-0.6c0-0.3,0.1-0.5,0.2-0.6c0.1-0.1,0.4-0.2,0.6-0.2h1.2c0.1-0.6,0.2-1.2,0.2-1.7
			c0-0.3,0.1-0.5,0.3-0.7c0.2-0.1,0.4-0.1,0.7-0.1c0.3,0.1,0.5,0.2,0.5,0.4c0.1,0.2,0,0.9-0.1,2h1.4c0.3,0,0.5,0,0.8,0.1
			c0.2,0.1,0.4,0.3,0.5,0.5c0.1,0.2,0.2,0.6,0.2,1.1c0,0,0,0,0,0.1c-0.1,2.8-0.7,5.1-1.7,7.1l1.6,1.1c0.2,0.2,0.4,0.4,0.4,0.6
			c0,0.2,0,0.4-0.1,0.6c-0.2,0.2-0.3,0.3-0.5,0.4c-0.2,0-0.5,0-0.7-0.2l-1.5-1.1c-0.8,1.1-1.7,1.9-2.6,2.4c-0.3,0.2-0.5,0.2-0.7,0.1
			c-0.2-0.1-0.4-0.3-0.5-0.5c-0.1-0.2-0.2-0.5-0.1-0.7c0.1-0.2,0.2-0.4,0.4-0.6c0.8-0.5,1.5-1,2.1-1.8L70.1,110.5z M72.7,104
			c-0.4,1.8-0.9,3.3-1.4,4.6c-0.1,0.2-0.1,0.3-0.1,0.4c0,0.1,0.1,0.2,0.3,0.4l1.4,1c0.2-0.4,0.4-0.7,0.6-1.1
			c0.1-0.2,0.1-0.5,0.2-0.7c0.7-2.5,0.9-3.9,0.5-4.4c-0.1-0.1-0.2-0.2-0.5-0.2H72.7z M76.8,108.3c-0.3,0-0.5-0.1-0.6-0.2
			c-0.1-0.1-0.2-0.4-0.2-0.6c0-0.2,0.1-0.4,0.2-0.6c0.1-0.2,0.4-0.2,0.6-0.2h2.9c-0.2-0.3-0.3-0.5-0.5-0.8c-0.2-0.3-0.3-0.5-0.3-0.8
			c0-0.3,0.1-0.5,0.4-0.7l2.1-2c0.1-0.1,0.1-0.1,0-0.2c0-0.1-0.1-0.1-0.3-0.1h-4.3c-0.3,0-0.5-0.1-0.7-0.2c-0.1-0.2-0.2-0.4-0.2-0.6
			c0-0.2,0.1-0.4,0.2-0.6c0.2-0.2,0.4-0.2,0.7-0.2H83c0.3,0,0.6,0.1,0.8,0.3c0.2,0.2,0.3,0.5,0.3,0.8c0,0.3-0.1,0.6-0.4,0.8
			l-2.6,2.3c-0.3,0.2-0.4,0.4-0.4,0.6c0,0.2,0,0.3,0.1,0.4c0.2,0.3,0.4,0.7,0.6,1.1h2.3c0.3,0,0.5,0.1,0.6,0.2
			c0.1,0.1,0.2,0.4,0.2,0.6c0,0.2-0.1,0.4-0.2,0.6c-0.2,0.2-0.4,0.3-0.6,0.3h-1.7c0.6,1.8,0.6,3.4,0,5.1c-0.5,0.9-1.1,1.5-1.8,1.8
			c-1.2,0.3-2.3,0-3.4-0.9c-0.2-0.2-0.4-0.4-0.4-0.6c0-0.2,0-0.4,0.2-0.6c0.4-0.4,0.8-0.5,1.3-0.1c0.5,0.3,0.9,0.4,1.2,0.5
			c0.3,0,0.7-0.1,1-0.4c0.8-0.9,0.9-2.4,0.3-4.7H76.8z"/>
		<path class="st1" d="M93.5,108c-0.2,0.6-0.4,1.1-0.7,1.7c-1.4,3.2-2.5,4.8-3.2,5c-0.2,0-0.4-0.1-0.7-0.2c-0.2-0.2-0.4-0.4-0.4-0.6
			c0-0.2,0-0.5,0.2-0.7c0.5-0.7,0.9-1.3,1.3-1.8c1.5-2.4,2.5-5,2.9-7.9h-3.3c-0.3,0-0.5-0.1-0.6-0.2c-0.1-0.1-0.2-0.4-0.2-0.6
			c0-0.2,0.1-0.4,0.2-0.6c0.2-0.2,0.4-0.2,0.6-0.2h3.5c0-0.4,0.1-0.7,0.1-1.1c0-0.3,0.1-0.5,0.3-0.6c0.2-0.1,0.4-0.2,0.6-0.2
			c0.2,0,0.4,0.1,0.6,0.3c0.2,0.2,0.2,0.7,0.1,1.6h8.4c0.3,0,0.5,0.1,0.6,0.2c0.1,0.1,0.2,0.4,0.2,0.6c0,0.2-0.1,0.4-0.2,0.6
			c-0.2,0.2-0.4,0.3-0.6,0.3h-8.7c-0.1,0.2-0.2,0.7-0.3,1.6h6.7c0.6,0,1,0.2,1.2,0.5c0.3,0.4,0.3,0.9,0.2,1.7
			c-0.4,1.7-1.4,3.3-2.9,4.7c1.1,0.7,2.5,1.2,4,1.6c0.3,0.1,0.5,0.2,0.7,0.5c0.1,0.2,0.1,0.5,0.1,0.7c-0.1,0.3-0.2,0.5-0.4,0.6
			c-0.2,0.1-0.5,0.2-0.8,0.1c-1.9-0.5-3.5-1.3-5-2.4c-1.8,1.1-3.6,1.9-5.6,2.4c-0.3,0.1-0.5,0-0.7-0.1c-0.2-0.1-0.4-0.3-0.4-0.6
			c-0.1-0.3,0-0.5,0.1-0.7c0.1-0.2,0.3-0.3,0.6-0.4c1.6-0.4,3.2-1,4.7-1.7c0,0-0.1-0.1-0.3-0.3c-1.2-1.3-2-2.8-2.5-4.8
			C93.8,107.1,93.6,107.6,93.5,108z M96.5,108.8c0.5,0.8,1.1,1.5,1.7,2c0.1-0.1,0.2-0.1,0.2-0.2c0.5-0.4,0.9-0.9,1.3-1.4
			c0.5-0.8,0.8-1.4,1-1.8c0.1-0.3,0-0.5-0.1-0.6c-0.1-0.1-0.3-0.2-0.5-0.2h-4.4C95.9,107.6,96.2,108.3,96.5,108.8z"/>
	</g>
</g>
</svg>
