<?xml version="1.0" encoding="utf-8"?>
<!-- Generator: Adobe Illustrator 21.1.0, SVG Export Plug-In . SVG Version: 6.00 Build 0)  -->
<svg version="1.1" id="圖層_1" xmlns="http://www.w3.org/2000/svg" xmlns:xlink="http://www.w3.org/1999/xlink" x="0px" y="0px"
	 viewBox="0 0 286.4 118.6" style="enable-background:new 0 0 286.4 118.6;" xml:space="preserve">
<style type="text/css">
	.st0{fill:#727660;}
</style>
<path class="st0" d="M36.8,66.3c1.1,0.4,1.8,0.2,2.7,0.5c0.9,0.4,3.3,2.1,4,2.1c0.6,0,1,0.5,2.1,0c1-0.5,1-2.2,0.4-2.3
	c-0.6-0.1-1.1,0.2-2.5-0.4c-1.4-0.5-4.1-1.8-5-1.7c-1,0.1-2.8,0-2.6,0.8C36.1,66.2,35.7,65.9,36.8,66.3 M43.1,77
	c-0.8-0.2-1.4,0.4-3.7,0.3c-2.3-0.1-2.9-1-4-0.8c-1.1,0.2-2.4,0.8-2.5,1.5c0,0-0.1,1.1,1,0.8c1.1-0.3,1.6,0,3.3,0.3
	c1.8,0.3,3.2,0.9,5.3,1.1c2.1,0.3,4.8,4.4,5.5,4.4c0.8,0,1.1,0.2,1-1.4C49,81.5,43.9,77.1,43.1,77 M36.3,75.1c0.5,0.4,2,0.5,3.4,0.3
	c1.4-0.2,2.7-0.1,3.3-1c0.7-0.9,3.4-0.9,3.4-1.8c0-0.9-0.2-1.4-1.2-1.4c-1.1,0-2.7,0.9-4.5,1.2c-1.9,0.3-3.9,0.7-5.4,0.1
	c-1.5-0.6-1.9-0.6-1.9-2c0-1.4,0.7-1.8,0.8-2.5c0.1-0.7-1.8-1.1-4.3-1c-2.5,0.1-1.6-0.4-2.4-0.4c-0.8-0.1-0.9,0.4-2.7,0.4
	c-1.9,0-2.8-0.6-3.8-0.6c-1,0-1.5,1.2-2.6,1.2c-1.1,0-2.8-1.1-4.1-1c-1.3,0.1-6.2,1-8.6,1.6c-2.4,0.6-2.6,0.4-3.7,0.1
	c-1.1-0.4-2.1-0.2-1.9,0.5c0.4,2,2.3,2.6,3,2.6c0.7,0,1.2-0.4,1.5-0.8c0.4-0.4,1.2-0.3,3.7-0.6c2.5-0.4,1.9,0.1,3.5-0.2
	c1.6-0.3,2.5-0.4,4-0.6c1.4-0.2,3.3,0.2,5.9-0.3c2.6-0.4,2.2,0.3,5.1,0c2.9-0.3,2.7,0.1,2.7,0.9c0,0.8-1.9,1.1-3.6,2.3
	c-1.8,1.1-4.1,2.3-4.4,2.3c-0.3,0-0.6,0-1.7-0.8c-1.1-0.8-2.7-1.5-4.5-1.6c-1.8-0.1-2.2,0.7-2.3,1.7c-0.1,1,2.1,0.9,4.2,1.1
	c2.1,0.2,3.6,2.4,5.7,2.2c2.1-0.2,4.2-4.6,7-4.7c1,0,1.7,0.8,2.8,1.6C34.1,74.9,35.9,74.7,36.3,75.1 M86.6,81.8
	c-1.3-1-4.5-1.1-5.5-1.3c-1-0.1-2.5-0.9-3.2-0.9c-0.7,0-2.3,0.8-2.2,1.4c0.1,0.4,0.2,0.7,1.3,0.8c1,0.1,1.8,0.3,3.1,0.3
	c1.2,0,2.6,0.9,3.9,1.1c1.3,0.3,2.2,1.2,2.8,1.2c0.6,0,0.9-0.3,1.1-1C87.9,82.8,87.9,82.8,86.6,81.8 M145.3,81.3
	c-1.7-0.1-3,0.5-3.6,0.4c-0.6-0.1-2.4,0.1-3-0.4c-0.5-0.5-2.6-2.8-4.4-3.6c-1.8-0.8-3.1-0.1-4.1-0.4c-1-0.3-0.4-0.7-1.6-1.1
	c-1.2-0.4-3.8-1.1-4.7-1.5c-1-0.4-2,0.3-3.6-1.1c-1.8-1.5-3.2-3.2-3.6-3.4c-0.3-0.2-0.8-0.2-1,0.1c-0.2,0.3-0.5,0.6-0.1,1.5
	c0.4,0.9,3.6,5.3,4.5,5.8c0.9,0.5,2.6,0.2,4,0.5c1.5,0.2,4.4,3.1,5.3,3.1c0.9,0,3.2-0.2,3.8-0.2c0.6,0,1.2,0.4,2.4,1.8
	c1.2,1.4,3.8,2.2,5.7,2.3c1.9,0.1,4.2-1.3,5.3-1.4c1.2-0.1,1.1,1.3,2.2,1.2c1.1-0.1,1.2,0,1.2-0.9C150.1,83,147,81.4,145.3,81.3
	 M78.6,42c-0.5-0.8-1-1.6-1-2.6c0-0.4,1-1.7,1.4-2.4c0.4-0.7,1.2-0.5,1.4-0.1c0.2,0.4,7.3,6.3,8.2,7.6c0.9,1.3,0.9,0.9,0.9,1.3
	c0,0.4-1.9,4.2-3.5,4.7c-1.6,0.5-2.6,0.3-3.1,0.2c-0.5-0.1-0.5-1.9-0.8-2.6C81.8,47.3,79.2,42.8,78.6,42 M80.7,61.7
	c-1.1,0.7-0.9,0.1-1.1,0.1c-0.2,0-0.7,0.3-0.7-0.5c0-0.8-0.1-2.7-0.1-2.7c0.5-0.5,1.8-0.7,2.4,0.1c0.5,0.7,0.9,1,0.9,1.7
	C82,61.1,81.9,61.1,80.7,61.7 M81.4,65.7c-0.9,0-1.4-0.2-1.4-0.9c0-0.7,0.4-1.1,0.8-1.1c0.5-0.1,1.2,0.1,1.2,0.6
	C82,64.7,82.3,65.7,81.4,65.7 M77.8,56.6c-0.6-0.1-0.8-0.3-0.9-1.4c-0.1-1.5,0-2.3,1.9-2.4c1.8-0.1,3-0.5,3.2,0.4
	c0.1,0.9-0.1,0.5-0.9,1.7c-0.8,1.2-0.9,1.2-1.8,1.2C78.4,56.1,78.4,56.7,77.8,56.6 M77.2,62.5c-0.7,0.2-1.3-0.7-1.8-1.5
	c-0.5-0.9-0.8-1.4,0.1-1.6c1-0.1,1.4-0.3,1.8-0.1c0.3,0.2,0.5,0.7,0.5,1.8C77.8,62.2,77.8,62.4,77.2,62.5 M74.1,63.3
	c-0.5-0.1-1.2-0.1-1.3-0.4c-0.1-0.3-0.3-1.3-0.3-1.3c0-0.7,0.5-1.4,1.1-1.4c0.7,0,1.1,0.3,1.1,1.1C74.7,62,74.6,63.4,74.1,63.3
	 M71.1,60.3c-2,1-3.2,1.7-5,2.3c-1.7,0.6-1.3,1.1-3.3,1.1c-2,0-2.6-0.2-3.2-0.2s-0.2-0.1-0.3-0.6c-0.1-0.5-0.1-0.6-0.6-0.7
	c-0.5-0.1-1.3-0.2-1.8,0.1c-0.5,0.3-0.3,0.5-1.4,0.4c-0.5,0,0-1.3,0.5-2.2c0.5-0.8-0.1-1.4,0.3-1.8c0.3-0.3,1.5-0.8,4.2-0.7
	c2.7,0.1,3.6-0.3,4.1,0.9c0.5,1.1-0.5,1.1,0.1,1.6c0.6,0.6,1.5,0.4,2.1-0.5c0.6-0.9,0.3-0.9,1.9-1.5c1.6-0.5,2.1-0.7,2.6-0.6
	c0.5,0.1,0.8-0.9-0.3-1.2c-1.2-0.3-2.4-0.7-2.5-1.7c-0.1-1.1-0.4-2.4,0-2.8c0.4-0.3,1.1-1.6,1.6-1.7c0.6-0.1,0.7,0.9,1.3,0.6
	c0.6-0.3-0.1-1.4,0.9-2.9c0.9-1.5,0.7-2,1.4-2c0.7,0,1.4,0.5,1.4,1.1c0,0.7-0.1,0.7-0.1,2c0,1.3,0.6,2.3-0.5,2.4
	c-1.1,0.1-1.7-0.3-1.9,0.3c-0.2,0.6,0.1,1.1,0,1.5c-0.1,0.4-0.6,1.5,0.9,1.8c0.6,0.1,0.9-0.2,1.2,0.1c0.3,0.3,0.3,0.5,0.3,1.7
	c0,1.1,0.5,1.5-0.4,1.9C73.7,59.3,73.1,59.3,71.1,60.3 M71.3,64.5c-0.7,0.3-1,0.5-1.3,0.5c-0.3,0-1-0.1-1-0.9
	c-0.1-0.7-0.4-1.2,0.1-1.6c0.5-0.4,0.8-0.9,1.7-0.8c0.9,0.1,1.3,0.6,1.3,1.3C72,63.8,72,64.2,71.3,64.5 M66.6,66.1
	c-0.6,0-1.1-0.1-1.1-0.8c0-0.6-0.1-1.4,0.7-1.4c0.9,0,1.5-0.3,1.5,0.6C67.6,65.5,67.2,66.1,66.6,66.1 M63,67.7
	c-0.6,0.2-0.9,0.3-1.5,0c-0.6-0.3-0.3-1.5-0.3-1.5c0.1-0.7,0.5-1.5,1.5-1.3c1,0.2,1.6,0.4,1.6,1.2C64.2,67,63.6,67.5,63,67.7
	 M58.2,68.2c-0.5,0.3-1.4-0.7-1.4-0.7c-0.1-0.7,0-2.2,1.1-2.1c1.1,0.1,1.4,0.4,1.4,1.2C59.3,67.4,58.7,68,58.2,68.2 M54.4,68.1
	c-0.3,0.1-0.5,0.1-1-0.4c-0.5-0.5-0.8-1.1-0.7-1.8c0.1-0.8,0.9-0.8,1.7-0.9c0.8-0.1,1.1,0.9,1,1.6C55.3,67.8,54.7,68,54.4,68.1
	 M50.6,63c-0.7-0.3-2.3-0.7-3.8-3.4c-1.5-2.6-1.7-3-1.7-4.1c-0.1-1.1-0.3-2.5,0.7-2.6c0.7,0,3.8,2.4,4.4,3.2
	c0.6,0.8,1.2,0.5,1.4,0.1c0.2-0.4-0.9-2.3-2.1-3c-1.2-0.7-0.4-1.5-0.5-1.9c-0.1-0.4,1.7-1.2,3.6-1.6c1.9-0.5,2.2-0.9,3.2-0.8
	c1,0.1,2.3-0.1,2.7,0.9c0.4,1-0.1,2.7-0.7,4c-0.6,1.3-0.4,1.8-1.2,2.3c-0.8,0.5-2.3,0.3-2.9,0.5c-0.7,0.2-0.4,0.6-0.3,1
	c0.1,0.3,1.1-0.5,1.4,0.3c0.3,0.8,0.2,0.5,0.1,1.6c0,0-0.5,0.6-0.7,1.9c-0.2,1.2-0.3,2.2-1.2,2.2C51.9,63.6,51.3,63.4,50.6,63
	 M44.5,41.5c-1.1,1.8-0.8,3-1.1,3.4c-0.3,0.3-0.7,0.3-0.7,0.3c-0.7-0.1-2-1.4-2-3.4c0-2,0.5-4.1,1.6-4.4c1.1-0.3,2.5-0.1,2.7,0.6
	C45.3,38.7,45.5,39.7,44.5,41.5 M45,28.7c0.3-0.2,1.7-3.4,2.2-3.8c0.6-0.5,0.5-0.5,1.9-0.5c1.4,0,2.1-0.1,2.7,0.3
	c0.6,0.3,0.6,2.5,0.6,3.6c0,1.1,0.5,2.7-1.1,3.3c-1.6,0.6-3.1,1.1-3.1,1.7c0,0.6,0.7,1,1.4,0.8c0.7-0.2,1.5-0.8,2.6-0.2
	c1.1,0.6,1.6,0.9,1.6,2c0,0.5-1.8,1.3-3,1.3c-1.3,0-3.8-1.7-5.1-3c-1.3-1.3-1-2.1-1.1-3C44.6,30.2,44.7,28.9,45,28.7 M54.1,25.4
	c0,0,0.9-0.5,1-1c0.1-0.5-0.1-1.6,1-2.1c0.3-0.1,0-0.7,0.5-0.7c0.5,0,4.6-0.3,5.7-0.2c1.1,0.1,1.3,0.3,1.3,0.9
	c0,0.6,0.5,1.6-0.1,2.1c-0.6,0.4-1.5,0.7-2.1,0.7c-0.7,0-1.4,0.3-2.6,0.8c-1.2,0.5-0.9,0.6-1.9,1.2c-1,0.7-2.1,0.9-2.8,0.3
	C53.9,27.3,54.1,25.4,54.1,25.4 M58.4,19.5c0-0.7,0.6-2,2.2-2.2c1.6-0.3,1.5-0.3,2.2-0.9c0.7-0.5,1-0.5,2.5-0.5
	c1.5,0,2.2-0.1,2.5,0.6c0.3,0.6,0.5,2,0.1,2.2c-0.4,0.3-1,0.7-2,0.9c-1,0.2-2,0.5-2.8,0.5c-0.9,0-3.8-0.1-4.4-0.2
	C58.1,19.9,58.4,19.5,58.4,19.5 M65.7,22c0-0.9,0.2-1.8,1.1-1.8c0.9,0,1.1,0.1,1.1,0.5c0,0.4-0.4,0.8-0.4,1.6c0,0.8-0.1,1.5-0.6,1.5
	C66.2,23.8,65.7,22.8,65.7,22 M66,25.6c0.8,0,1.2,0.7,1.3,2c0.1,1.2,0.3,1.8,0.1,2.4c-0.1,0.5-0.3,0.9-0.9,1.1
	c-0.6,0.3-1.7,0.1-2.1,0c-0.3-0.1-0.7-0.7-0.7-0.9c0-1.1,0.2-1.8,0.9-2.8C65.4,26.4,65.2,25.6,66,25.6 M58.9,28.3
	c0-0.9,1.1-1.5,1.9-1.8c0.8-0.3,0.6-0.5,1-0.3c0.4,0.3,0.7,0.1,0.7,1.2c0.1,1.1,0.2,2.5-0.1,2.9c-0.3,0.4-0.7,1.2-1.3,1.4
	c-0.7,0.1-1.3,0.3-1.5-0.3c-0.3-0.6-0.5-1.3-0.6-1.7C58.9,29.3,58.9,28.3,58.9,28.3 M68.6,33.7c0,0.8-0.3,2-0.3,2.5
	c0,0.5,0.1,0.8-2.4,0.8c-2.5,0-5.5-0.3-6.1-0.2c-0.7,0.1-1-0.3-1-0.6c0-1.1,2-1.7,2.9-2.5c0.9-0.8,1.3-1.1,2.4-1.1
	c1.1,0,3-0.4,3.5-0.1C68,32.7,68.6,32.9,68.6,33.7 M59.8,51.5c0.6,0.1,1.1,0.7,1.1,2.1c0,1.4-0.3,1.7-0.7,2C59.7,56,59.4,56,58.9,56
	c-0.5,0-0.9-0.2-1-0.9c-0.1-0.8,0.2-1.1,0.7-1.9C59,52.5,59.2,51.3,59.8,51.5 M57.4,43.4c-0.5-1.2-0.9-1.8-0.9-2.8
	c0-0.7,0.3-1.8,1.7-2.1c1.5-0.3,1.8-0.9,2.4-0.7c0.6,0.2,2.3,0.5,2.3,1.3c0,0.9-0.6,2.7-1.7,4.2c-1.1,1.5-1.7,2.5-2.4,2.7
	C58.2,46.1,57.9,44.6,57.4,43.4 M54.2,31.3c0.1-0.9-0.2-2.2,1.4-2.5c1.6-0.3,1.8-0.1,2.2,0.7c0.4,0.8,0.3,1.3,0.5,1.6
	c0.2,0.3,0.6,0.1,0.6,1.1c0,1-0.3,1.6-1,2c-0.7,0.5-1.2,0.9-1.9,1c-0.7,0.1-1.1-0.3-1.1-0.3C54.1,34.3,54.1,32.2,54.2,31.3
	 M55.5,42.8c0.3,1.8,2.2,2.5,2.2,3.5c0,1-0.3,0.9-2.6,1.2c-2.3,0.3-3.2,0.8-4.6,1.3c-1.4,0.5-2.2,0.7-2.2,0.7
	c-1.4-0.1-1.7-0.3-1.7-1.3c0-1.1,0-5-0.1-6.1c-0.1-1.1,0.2-3.2,1.2-3.3c1-0.1,3.2-0.5,3.8,1c0.3,0.9,0.2,0.5,1.4,0.6
	C54.1,40.3,55.3,41,55.5,42.8 M62.9,48.1c0,0.7-0.1,0.8,0.5,0.8c0.6,0,0.9-0.5,1.2-1.4c0.3-0.9,0.3-0.9,1.1-1.1
	c0.9-0.3,0.6,0,0.6,1.3c0,1.2-0.2,4-0.2,6.2c0,2.2-0.6,1.9-2.3,2c-1.7,0.1-1.8-0.3-1.8-1.7c0-1.4,0.2-3.8-0.6-4.1
	c-0.8-0.3-0.5-1.4-0.4-3c0.1-1.5,0.5-2.1,1.3-3.4c0.8-1.3,1.1-3.7,1.6-4.7c0.5-1.1,1.1-1,1.8-1.1c0.7-0.1,0.9,0.9,0.9,1.4
	c0,0.5,0.4,0.8,1.2,0.9c0.8,0.1,0.9,0.5,0.8,1.3c-0.1,0.9-0.2,1.5-1,1.6c-0.8,0.1-0.8-1.6-1-1.8c-0.3-0.2-0.9-0.3-1.1,0.5
	c-0.2,0.9,0,1.9-1.4,3.6C62.7,47.2,62.9,47.4,62.9,48.1 M68.7,45c0.3-1.1-0.3-1.7,0.4-2.2c0.7-0.5,0.8-1.2,1.9-1.9
	c1.1-0.6,1.1-0.9,2.1-0.9c1.1,0,1.2,0.3,1.3,1.4c0.1,1.1,0.5,2-0.1,2.5c-0.5,0.5,0.1,0.4-2.1,2c-2.2,1.7-2.2,1.5-2.6,2
	c-0.3,0.5-0.8,0.5-0.8,0.5c-0.1,0-0.1,0-0.2,0c-0.6-0.1-0.9-0.5-0.9-1.4C67.9,46.1,68.5,46.1,68.7,45 M71,35.5c1.8,0.1,2,1,2,1.4
	c0,0.5-0.6,1.7-1.3,1.8c-0.7,0.1-1.8-0.1-1.8-0.1v-2.2C69.9,35.7,69.7,35.4,71,35.5 M69.6,33.3c0-0.5,0.1-1.1,1.7-1.1
	c1.5,0,1.8,0.6,1.9,1.1c0.1,0.5-0.3,1.1-1.3,1.1c-1,0.1-1.5-0.1-1.7-0.1c-0.3,0-0.5-0.3-0.6-0.9V33.3z M77.8,46.4
	c-0.1-0.5-1.5-0.9-1.9-2.6c-0.3-1.7-0.6-2.9,0.1-2.8c0.7,0.1,1.6,1.3,2.7,3.8c1.1,2.4,1,2.4,1.7,3.4c0.7,1,0.7,0.9,0.7,1.7
	c-0.1,0.8-0.4,1.1-1.1,1.2c-0.7,0.1-0.6-0.3-1.1-1.2C78.6,49,78.7,49,78.2,49c-0.5,0-0.6,0.1-0.8,0.9c-0.2,0.8-0.1,0.7-0.2,0.9
	l-0.5,0.7c-0.7-0.1-1.1-1.1-0.9-2.2c0.2-1.1,0.3-2,1.2-2.2C77.8,46.9,78,46.9,77.8,46.4 M76.6,35.9c0.9,0.1,1.1,0.2,1.2,0.7
	c0.1,0.5-0.2,1.3-0.8,1.4c-0.6,0.1-0.7-0.1-1.1-0.5L75.5,37C75.5,36.4,75.7,35.8,76.6,35.9 M149.2,75.8c-0.7,0-2.1,0.9-2.8,0.9
	c-0.7,0-2.2,0-3.2-0.6c-1-0.5-3-1.4-4.3-2.2c-1.4-0.8-3.6-1.4-4.7-1.7c-1.1-0.3-6.2-3.6-6.2-3.6c-1.3-0.5-0.9,0.1-5.5-2.5
	c-4.6-2.6-13.9-8.8-13.9-8.8s-2.3-0.7-2.7-0.2c-0.4,0.5-5.1,3.1-8.3,4.1c-3.2,1-5.5,1.3-6.3,1.9c-0.8,0.6-3.7,3.5-4.5,3.5
	c-0.8,0-1.6-0.5-1.7-1.6c0-1.2,2.3-0.6,2.3-2.4c0-0.7-1.1-0.8-1.8-0.8c-0.8,0-2.5,0.1-2.6-0.5c0-0.5-0.1-2.9-0.1-2.9
	s0.6-0.3,1.2,0.2c0.6,0.5,2,1.1,3.1,1.1c1,0,1.2-1.9,1.2-2.6c0-0.7-0.5-1.6-1.2-1.7c-0.7-0.1-1.3,1.4-2.6,1.4c-1.3,0-1.6-1-1.6-1.5
	c0-0.5,1.2-1.6,2-1.7c0.8-0.1,3.1,0.3,3.6,0c0.5-0.2-0.2-1.4,1.1-3.5c1.2-2.1,5.3-4.7,5.2-5.5c-0.1-0.7-1.2-1-3.9-1.9
	c-2.7-0.9-8.3-7-9-7.6c-0.8-0.6-0.1-2.1-1.2-2.2c-1.1-0.1-1.6,1.1-2.2,1.1c-0.6,0-0.7-0.3-1.9-1.2c-1.2-0.9-1.2-3.2-1.1-4.4
	c0.1-1.3,0.5-2.7,0.7-3.1c0.2-0.4,0.1-1-0.6-1c-0.7,0-1.4,0.6-1.4,1c0,0.5-0.1,2.9-0.1,3.8c0,0.9-0.6,1.2-1.5,1.3
	c-0.9,0-2.9-0.2-2.9-0.2l0-11.3h3.7c2.1,0,3.1-1.7,3.1-2.5c0-0.8-0.2-1.1-0.4-1.2c-0.2-0.2-0.9-0.1-3.5-0.3c-2.6-0.2-3-0.7-3-1.7
	V1.2c0-0.8-0.6-1.1-0.7-1.2c-0.1,0-0.6-0.1-1,0.4c-0.4,0.5-0.7,0.8-2.1,1.4c-1.3,0.6-3.4,0.5-3.4,0.5c-0.8-0.1-1.8-0.6-2.5-0.5
	c-0.7,0.1-1.4,0.5-1.4,1.4c0,0.8,0.6,0.7,0.7,1.5c0,0.8-0.8,0.1-0.7,1.9c0.1,1.7,1.2,2,3.1,2c1.9,0,5.9,0,5.9,0v4.8
	c0,0-0.4,0.1-2.6,0.1c-2.2,0-4.2,0.5-6.8,2.7c-2.7,2.2-5.8,6.1-6,6.1h-4.9c-3,0-3.4,0.3-3.4,1v0.2c0,0.9,1.3,1.1,1.7,1.1
	c0.4,0,0.6,0.5,0.3,0.7c-2.8,1.7-3.7,4.2-3.8,5.9c-0.1,1.7,1.1,3.8,1.1,4.5c0,0.7-1.4,0-2.6,1.2c-1.3,1.3-1.6,3.7-1.7,5.5
	c-0.1,1.8,2.1,5.1,4.1,5.6c2,0.5,2.5,1.7,2.5,2c0.1,0.3,0,0.6-0.5,1.7c-0.4,1.1-1.7,2.6-1.7,5c0,2.3,0.5,4.8,2,6.1
	c1.5,1.3,3.6,1.8,4.9,2.2c1.3,0.4,1,1.8,1.1,2.5c0.1,0.7,0.5,2,1.4,2.6c1.6,1.1,3.7,3.4,3.9,3.7c0.2,0.3,0.7,0.2-0.9,0.7
	c-1.6,0.5-2.8,1.4-2.8,1.8c0.1,0.4,0.5,0.7,1.7,0.7c1.3,0,4.9,0.1,5.6,0.3c0.6,0.3,2.5,1,3.2,0.9c0.7-0.1,2.6,0,5.3,0
	c2.7,0,2.5-1.5,2.6-2.1c0.1-0.5-0.1-1.4-2.2-1.4c-2.2,0.1-5.3,1.2-5.8,1.2c-0.5,0-1.8-0.3-1.9-1.2c-0.1-0.9,1.3-3.6,1.9-4
	c0.6-0.5,1.6-0.5,3.6,0c2,0.5,2.4,2.2,3,2.1c0.6,0,0.4-1,0.5-2.4c0.1-1.5,1.4-2.8,1.9-3.1c0.5-0.3,1.4,0,1.5-0.1
	c0.1-0.1,0.2-1.2,0.2-2c0-0.8,1-0.9,1.6-0.9c0.6,0,1.2,0.1,2.1,0.8c0.9,0.7-0.1,2.1,0.4,2c0.5-0.1,0.3,0.2,0.3,0.7
	c0,0.5,0.1,0.1-0.6,1.5c-0.8,1.4-1.8,4.8-2.5,4.8c-0.7,0.1-1.2-1.7-1.4-1.7c-0.2,0-1.1-0.3-1,1.8c0.1,2.2,3.3,3,4.5,2.8
	c1.2-0.2,0.1-2.4,1-4.9c0.8-2.5,3.4-5.2,4.8-5.2c1.4,0,2.3,2.1,2.3,3.3c0,1.1-1.3,2.6-2.7,2.7c-1.5,0.1-2.6,0-2.6,1.2
	c0,1.2,1,2.5,2.1,2.4c1.1-0.1,2.7-1.7,3.3-1.8c0.5-0.2,0.8,0.1,1,0.8c0.3,0.7-0.7,1.5-0.5,2.1c0.3,0.5,2.7-0.3,3.3,0.2
	c0.5,0.4-0.1,3,1.4,3c0.7,0,0.7-0.7,1.7-1.5c1-0.9,2.8,0.2,3.3,0c0.4-0.2,0.5-1,0.8-3.2c0.4-2.2,1.6-2.4,2.6-2.4c1,0,1.3,0.6,2,1.1
	c0.6,0.5-0.1,1.9,0.4,2.5c0.4,0.6,3.3,1.3,4.7,2c1.4,0.7,3.1,3.7,4.1,4.3c1,0.7,2.9,0.6,3.6,0.6c0.7,0,2-0.6,2-1.9
	c0-1.3-2.1-1.4-3.1-2.2c-1-0.7-1.8-2.1-2.5-2.3c-0.7-0.3-2.6-0.2-3.3-0.8c-0.7-0.6-1.1-1.7-1.5-2c-0.3-0.3-0.4-0.9-0.4-1
	c0-0.2,0-0.4,0.3-0.8c0.7-0.9,4.3-4.1,4.8-4.6c0.5-0.5,0.7-1.5-0.5-2.2c-1.2-0.7-2.4-2.4-2.6-2.8c-0.2-0.4,0.1-1.2,0.1-1.4
	c0-0.3-0.5-0.2-1.1-0.1c-0.7,0.1-2.3,1.7-2.3,3.1c0,1.4,2.1,3.9,2,4.3c-0.1,0.4-0.1,0.3-0.6,0.9c-0.5,0.6-2.1,1.5-3,1.5
	c-0.9,0-1.3-0.6-3.7-0.6c-2.4,0-2.7,2.9-5.4,3.1c-0.4,0-1.2-0.3-1.2-1.7c0-1.5,2.5-2.6,2.4-3.9c-0.1-1.2-2.4-1.6-2.3-2.3
	c0-0.7,0-1.1,0.9-1.3c0.9-0.1,6.2-1.7,8-2.5c1.8-0.8,5.6-2.8,6.6-2.8c1.1,0,8.4,5.3,10.4,6.7c2,1.3,9.5,5.9,11.3,6.3
	c1.9,0.4,7.1,2.7,10.1,4.7c3.1,2,5.3,2,7.6,2c2.3,0,4-1.1,4-2C150.7,76.3,149.8,75.8,149.2,75.8"/>
<g>
	<path class="st0" d="M173,85.5c0,0-0.8,0.9-2-0.1c-1.2-0.9-3.2-2.3-3.2-2.3s-2.3-1.4,1.1-2c3.4-0.6,4.4-1,5.5-2.2
		c0,0-0.1-9.2-0.3-10.1c-0.2-1-0.2-1.5-0.9-2.1c-0.7-0.6-2.4-1.9,0.2-2.5c2.6-0.6,6.2,0.4,6.3,3c0.1,2.6-2.4,5-2.3,7.3
		c0.1,2.3,1.1,1.8,2,0.9c0.9-0.9,4.6-7,7-5.4c2.2,1.5,0.1,4.6-0.7,5.4c-0.8,0.9-3.9,4.1-4.7,5c-0.8,0.9-1.6,1.2-0.9,2
		c0.7,0.8,5.9,8.3,16.3,13.6c3.2,1.3,9.3,3.9,9.4,4.7c0,0.8-5.7-0.1-6.3,3c-1.1,0.9-2.2-1.4-3.2-2c-1-0.6-14.7-10.9-18-19.1
		c-0.8,0.7-3.2,1.8-3.2,1.8s-1.4,6.6-5.1,11.5c2.3,0.6,8.6,2.4,9.5,4c0.9,1.6,2.6,4.1,0.1,5.2c-2.6,1.1-2.4-2-3.2-2.8
		c-0.9-0.8-0.5-3.3-7.7-3.9c0,0-1,3.5-10.4,7c0,0-1.8,0.2-1.8-0.7c0-1,2.1-0.7,4.3-2.1C163.2,101.1,168.7,99.1,173,85.5z"/>
	<path class="st0" d="M211.6,68.4c0,0-1.9-1.7,0.7-1.8c2.6-0.1,4.8,0.1,7.3-1.6c2.5-1.7,4-5.2,7.4-4.2c3.3,1,4,1.8,3.1,2.8
		c-0.9,1-8.7,6.6-11.6,7.7C215.5,72.3,211.6,69,211.6,68.4z"/>
	<path class="st0" d="M218.9,74c0,0-0.3-3.1,1.4-2.7c1.7,0.4,3,2.2,3.1,3.6c0.1,1.5,0.1,6.2,0.1,6.2s4.2-5.7,4.7-8.7
		c0.5-3,3.6,0.5,3.6,0.5s3.8,3.8,2.1,4.5c-1.6,0.7-3.7,1.3-5.3,3c-1.6,1.7-4.6,4.8-3.7,5.6c0.5,0.5,4.6-0.8,7-1.6
		c2.6-0.9,3.6-3.1,5.5-2c1.8,1.1,5.4,3.2,3.4,4.1c-1.9,0.9-19.5,3.1-19.4,5.1c0.1,2,0,18.7,0,18.7s0,3.1-2.1,4.5
		c-2.1,1.4-2.2,1.1-1.7-1.6c0.5-2.6,0.9-21.2,0.9-21.2s-4.7,1.2-8.5,3.8c-3.8,2.6-8.7-0.6-8.9-1.6c-0.2-1,0.4-1.3,3.2-1.8
		c2.8-0.4,13.9-4.3,14.4-4.5C219.1,87.7,218.9,74,218.9,74z"/>
	<path class="st0" d="M216.1,78.6c0,0-1.1,2-0.9,3c0.2,1,1.6,2.7,0.5,3.4c-1.1,0.7-3.9,0.2-6.9-4s2-2,3.4-1.9
		C213.5,79.2,215.2,79.7,216.1,78.6z"/>
	<path class="st0" d="M247.4,67c0,0,2.2-1.9,4.4-1.5c2.1,0.4,7.4,5.6,6.8,6.4c-0.6,0.8-5.6-1.1-7.4-1c-1.8,0.1-2.8,0.3-3-0.2
		c-0.2-0.5,1.4-2.5-0.9-2.3C245,68.8,246.9,67.1,247.4,67z"/>
	<path class="st0" d="M244.5,79.4c0,0,3.2-2.9,5.5-1.7c2.3,1.2,5.5,3.5,4.1,4.3c-1.4,0.7-5.6-0.8-7.6,1.3c-2,2-0.5-1.1-0.6-2.3
		C245.8,79.9,243.8,82.3,244.5,79.4z"/>
	<path class="st0" d="M260,82.2c0,0-8.5,12-8.3,17.2c0.2,5.2,0.9,5.5-0.6,6.2c-1.4,0.7-3.6-3-3.6-4.6c-0.1-1.6-0.1-2.8-1.3-3.1
		c-1.2-0.3-2.2-2.2-0.3-2.3c2-0.1,2.5-0.1,5.8-5.6C255.2,84.6,259.5,78.8,260,82.2z"/>
	<path class="st0" d="M262.1,64c0,0,0.6-2.1,2.2-1.8c1.6,0.3,1.4,0.3,1.8-0.2c0.4-0.5,1.3-1.1,1.5,0.4c0.3,1.5,0.4,1.8,1.1,2.7
		c0.7,0.8,1.2,2.4-0.1,2.5c-1.3,0.2-2.3-0.7-3.1-1.6c-0.8-0.9-1.7-0.8-2.1-0.8C263.1,65.2,261.9,65.5,262.1,64z"/>
	<path class="st0" d="M272.9,57.6c0,0,0.5-0.9,3.2-1c2.7-0.1,4-2.6,5.4-1.8c1.3,0.8,4.3,3.1,3.3,5c-1,1.9-12.1,6.3-13.9,11.2
		c0,0,0.5,0.7,2.5-1.1c2-1.8,3.2-2.9,5.7-1.9c2.6,1,2.4,1.8,1,2c-1.4,0.3-8.3,2.1-8,3.4c0.3,1.7,2.5,1.8,3.5,1.8
		c2.1,0.1,3.5,0,4.6,1.3c0,0,0,0.5-1.2,0.7c-1.2,0.3-5.2,1.9-5.2,1.9s-0.6,0.3-0.5,0.9c0,0.5-0.2,5.7-0.2,5.7s0.3,1.6,1.6,1.4
		c1-0.2,4.1-1.2,5.2-2.1c1.1-0.9,2.5-1.4,5-0.9c2.5,0.6,2.6,2.1,0.2,2.4c-2.4,0.3-12.1,2.2-12.1,3.8c0.1,1.5,0.9,19.8,0.9,19.8
		s-1,8.2-3.7,8.4c-2.7,0.2,0.5-2.1,0.6-6c0.2-3.9-0.1-21.3-0.1-21.3s-0.7-1-3.2,0.8c-2.5,1.7-3.4,3.3-6.5,3.9
		c-3.1,0.6-6-2.6-4.6-3.1c1.4-0.5,3.3,0.8,6.5-1.4c3.2-2.2,7.3-2.9,7.3-2.9l-0.3-4c0,0-0.7-2.6-2-1.4c-1.4,1.1-2.5,1.9-5.8-0.1
		c-3.2-1.9,0.7-1.3,2.4-1.5c1.8-0.2,2-0.8,4.9-2.3l-0.1-3.9c0,0-0.3-0.3-1.7,0.3c-1.4,0.6-3.8,1-5.7-1.1c-1.9-2.1,2.6-0.9,4.6-1.1
		c0,0,1.6-0.3,2-1.3c0.6-1.5,6.5-8.8,8.8-11.3c2.3-2.5-0.1-2.2-1.9-2.1C273.2,58.9,272.2,58.4,272.9,57.6z"/>
</g>
<g>
	<path class="st0" d="M0,90.8c1-0.2,2.4-0.3,4.1-0.3c2.1,0,3.6,0.5,4.6,1.4c0.9,0.8,1.4,2,1.4,3.5c0,1.5-0.4,2.7-1.3,3.5
		c-1.1,1.2-3,1.8-5,1.8c-0.6,0-1.2,0-1.7-0.1v6.6H0V90.8z M2.1,98.7c0.5,0.1,1.1,0.2,1.8,0.2c2.6,0,4.1-1.2,4.1-3.5
		c0-2.2-1.5-3.2-3.9-3.2c-0.9,0-1.6,0.1-2,0.2V98.7z"/>
	<path class="st0" d="M13.6,101.9l-1.7,5.2H9.7l5.6-16.5h2.6l5.6,16.5h-2.3l-1.8-5.2H13.6z M19,100.2l-1.6-4.7
		c-0.4-1.1-0.6-2.1-0.9-3h0c-0.2,1-0.5,2-0.8,3l-1.6,4.8H19z"/>
	<path class="st0" d="M37.1,106.5c-0.8,0.4-2.3,0.8-4.4,0.8c-4.7,0-8.1-2.9-8.1-8.3c0-5.2,3.5-8.7,8.6-8.7c2.1,0,3.4,0.4,3.9,0.7
		l-0.5,1.7c-0.8-0.4-2-0.7-3.3-0.7c-3.9,0-6.4,2.5-6.4,6.8c0,4,2.3,6.6,6.3,6.6c1.3,0,2.6-0.3,3.5-0.7L37.1,106.5z"/>
	<path class="st0" d="M41.9,90.6v16.5h-2.1V90.6H41.9z"/>
	<path class="st0" d="M45.6,90.6h8.9v1.8h-6.8v5.5H54v1.8h-6.2v7.5h-2.1V90.6z"/>
	<path class="st0" d="M59.7,90.6v16.5h-2.1V90.6H59.7z"/>
	<path class="st0" d="M74.9,106.5c-0.8,0.4-2.3,0.8-4.4,0.8c-4.7,0-8.2-2.9-8.2-8.3c0-5.2,3.5-8.7,8.6-8.7c2.1,0,3.4,0.4,3.9,0.7
		l-0.5,1.7c-0.8-0.4-2-0.7-3.3-0.7c-3.9,0-6.4,2.5-6.4,6.8c0,4,2.3,6.6,6.3,6.6c1.3,0,2.6-0.3,3.5-0.7L74.9,106.5z"/>
	<path class="st0" d="M96.9,98.7c0,5.7-3.5,8.7-7.7,8.7c-4.4,0-7.4-3.4-7.4-8.4c0-5.2,3.3-8.7,7.7-8.7C94,90.3,96.9,93.8,96.9,98.7z
		 M84.1,98.9c0,3.5,1.9,6.7,5.3,6.7c3.4,0,5.3-3.1,5.3-6.9c0-3.3-1.7-6.7-5.3-6.7C85.9,92,84.1,95.3,84.1,98.9z"/>
	<path class="st0" d="M111.2,106.5c-0.8,0.4-2.3,0.8-4.4,0.8c-4.7,0-8.2-2.9-8.2-8.3c0-5.2,3.5-8.7,8.6-8.7c2.1,0,3.4,0.4,3.9,0.7
		l-0.5,1.7c-0.8-0.4-2-0.7-3.3-0.7c-3.9,0-6.4,2.5-6.4,6.8c0,4,2.3,6.6,6.3,6.6c1.3,0,2.6-0.3,3.5-0.7L111.2,106.5z"/>
	<path class="st0" d="M122.4,99.3H116v5.9h7.1v1.8h-9.3V90.6h8.9v1.8H116v5.2h6.4V99.3z"/>
	<path class="st0" d="M128.6,101.9l-1.7,5.2h-2.2l5.6-16.5h2.6l5.6,16.5h-2.3l-1.8-5.2H128.6z M134,100.2l-1.6-4.7
		c-0.4-1.1-0.6-2.1-0.9-3h0c-0.2,1-0.5,2-0.8,3l-1.6,4.8H134z"/>
	<path class="st0" d="M140.9,107.1V90.6h2.3l5.3,8.3c1.2,1.9,2.2,3.7,3,5.4l0,0c-0.2-2.2-0.2-4.2-0.2-6.8v-6.9h2v16.5h-2.2l-5.2-8.4
		c-1.2-1.8-2.3-3.7-3.1-5.5l-0.1,0c0.1,2.1,0.2,4.1,0.2,6.8v7H140.9z"/>
</g>
</svg>
