<?xml version="1.0" encoding="utf-8"?>
<!-- Generator: Adobe Illustrator 21.1.0, SVG Export Plug-In . SVG Version: 6.00 Build 0)  -->
<svg version="1.1" id="圖層_1" xmlns="http://www.w3.org/2000/svg" xmlns:xlink="http://www.w3.org/1999/xlink" x="0px" y="0px"
	 viewBox="0 0 37.9 37.9" style="enable-background:new 0 0 37.9 37.9;" xml:space="preserve">
<style type="text/css">
	.st0{fill:#546E51;}
</style>
<g>
	<g>
		<path class="st0" d="M25.9,35.1c0,0,0.1,0,0.1-0.1v0C26,35,25.9,35.1,25.9,35.1z"/>
		<path class="st0" d="M18.9,0C8.5,0,0,8.5,0,18.9c0,7.4,4.3,13.8,10.5,17c0.2,0.1,0.3,0.2,0.5,0.2l0,0c0.2,0.1,0.3,0.1,0.5,0.2
			c0,0,0.1,0,0.1,0c0.3,0.1,0.5,0.2,0.8,0.3c0.3,0.1,0.6,0.2,0.8,0.3c0,0,0.1,0,0.1,0c0.3,0.1,0.5,0.2,0.8,0.2
			c0.3,0.1,0.6,0.1,0.9,0.2l0.2,0c0.3,0,0.5,0.1,0.8,0.1c0.6,0.1,1.2,0.2,1.8,0.2c0.3,0,0.7,0,1,0c0.3,0,0.7,0,1,0
			c0.6,0,1.2-0.1,1.9-0.2c0.3,0,0.5-0.1,0.8-0.1c0.1,0,0.1,0,0.2,0c0.3-0.1,0.6-0.1,0.9-0.2c0.3-0.1,0.6-0.2,0.9-0.2c0,0,0,0,0,0
			c0.3-0.1,0.6-0.2,0.9-0.3c0.3-0.1,0.6-0.2,0.9-0.3c0.4-0.2,0.7-0.3,1.1-0.5c6.2-3.1,10.5-9.5,10.5-17C37.9,8.5,29.4,0,18.9,0z
			 M25.6,34.8c-0.3,0.1-0.5,0.2-0.8,0.3c-1.1,0.4-2.2,0.7-3.3,0.8c-0.8,0.1-1.7,0.2-2.6,0.2s-1.7-0.1-2.6-0.2
			c-1.4-0.2-2.8-0.6-4.1-1.1v-4.2c0-2.9,3-5.2,6.7-5.2s6.7,2.3,6.7,5.2V34.8z M12.3,16c0-3.7,3-6.7,6.7-6.7s6.7,3,6.7,6.7
			c0,3.7-3,6.7-6.7,6.7S12.3,19.7,12.3,16z M26,35c0,0-0.1,0-0.1,0.1C25.9,35.1,26,35,26,35L26,35z M27.4,33.9v-3.3
			c0-3.1-2.4-5.7-5.7-6.6c3.3-1.1,5.7-4.3,5.7-8c0-4.6-3.8-8.4-8.4-8.4c-4.7,0-8.4,3.8-8.4,8.4c0,3.7,2.4,6.9,5.7,8
			c-3.3,1-5.7,3.6-5.7,6.6v3.3c-5.2-2.9-8.7-8.5-8.7-14.9c0-9.5,7.7-17.2,17.2-17.2c9.5,0,17.2,7.7,17.2,17.2
			C36.1,25.3,32.6,30.9,27.4,33.9z"/>
		<path class="st0" d="M25.9,35.1c0,0,0.1,0,0.1-0.1v0C26,35,25.9,35.1,25.9,35.1z"/>
	</g>
	<g>
		<path class="st0" d="M26.3,36.4c0.2-0.1,0.4-0.2,0.6-0.2l0.5-0.2v0C27,36.1,26.7,36.2,26.3,36.4z M10.5,35.9L10.5,35.9l0.5,0.2
			C10.8,36.1,10.7,36,10.5,35.9z M25.9,35.1c0,0,0.1,0,0.1-0.1v0C26,35,25.9,35.1,25.9,35.1z M18.9,36.1c-0.9,0-1.7-0.1-2.6-0.2
			C17.2,36,18.1,36.1,18.9,36.1c0.9,0,1.7-0.1,2.6-0.2C20.7,36,19.8,36.1,18.9,36.1z"/>
	</g>
</g>
</svg>
