<?xml version="1.0" encoding="utf-8"?>
<!-- Generator: Adobe Illustrator 21.1.0, SVG Export Plug-In . SVG Version: 6.00 Build 0)  -->
<svg version="1.1" id="圖層_1" xmlns="http://www.w3.org/2000/svg" xmlns:xlink="http://www.w3.org/1999/xlink" x="0px" y="0px"
	 viewBox="0 0 27.8 33.6" style="enable-background:new 0 0 27.8 33.6;" xml:space="preserve">
<style type="text/css">
	.st0{fill:#546E51;}
</style>
<g>
	<g>
		<path class="st0" d="M25.1,33.6H2.8c-1.5,0-2.8-1.2-2.8-2.8V2.8C0,1.2,1.2,0,2.8,0h22.3c1.5,0,2.8,1.2,2.8,2.8v28.1
			C27.8,32.4,26.6,33.6,25.1,33.6z M2.8,1.5c-0.7,0-1.3,0.6-1.3,1.3v28.1c0,0.7,0.6,1.3,1.3,1.3h22.3c0.7,0,1.3-0.6,1.3-1.3V2.8
			c0-0.7-0.6-1.3-1.3-1.3H2.8z"/>
	</g>
	<g>
		<g>
			<rect x="6.3" y="23.5" class="st0" width="12.8" height="1.5"/>
		</g>
		<g>
			<rect x="6.3" y="19.5" class="st0" width="15.3" height="1.5"/>
		</g>
		<g>
			<rect x="6.3" y="16.1" class="st0" width="12.8" height="1.5"/>
		</g>
		<g>
			<rect x="6.3" y="12.9" class="st0" width="12.8" height="1.5"/>
		</g>
		<g>
			<rect x="6.3" y="8.6" class="st0" width="15.1" height="1.5"/>
		</g>
	</g>
</g>
</svg>
