<?xml version="1.0" encoding="utf-8"?>
<!-- Generator: Adobe Illustrator 21.1.0, SVG Export Plug-In . SVG Version: 6.00 Build 0)  -->
<svg version="1.1" id="圖層_1" xmlns="http://www.w3.org/2000/svg" xmlns:xlink="http://www.w3.org/1999/xlink" x="0px" y="0px"
	 viewBox="0 0 18.3 22" style="enable-background:new 0 0 18.3 22;" xml:space="preserve">
<style type="text/css">
	.st0{fill:#FFFFFF;}
</style>
<g>
	<g>
		<path class="st0" d="M16.4,22H1.8c-1,0-1.8-0.8-1.8-1.8V1.8C0,0.8,0.8,0,1.8,0h14.6c1,0,1.8,0.8,1.8,1.8v18.4
			C18.2,21.2,17.4,22,16.4,22z M1.8,1C1.4,1,1,1.4,1,1.8v18.4c0,0.5,0.4,0.9,0.9,0.9h14.6c0.5,0,0.9-0.4,0.9-0.9V1.8
			c0-0.5-0.4-0.9-0.9-0.9H1.8z"/>
	</g>
	<g>
		<g>
			<rect x="4.1" y="15.4" class="st0" width="8.4" height="1"/>
		</g>
		<g>
			<rect x="4.1" y="12.8" class="st0" width="10" height="1"/>
		</g>
		<g>
			<rect x="4.1" y="10.5" class="st0" width="8.4" height="1"/>
		</g>
		<g>
			<rect x="4.1" y="8.4" class="st0" width="8.4" height="1"/>
		</g>
		<g>
			<rect x="4.1" y="5.6" class="st0" width="9.9" height="1"/>
		</g>
	</g>
</g>
</svg>
