<?xml version="1.0" encoding="utf-8"?>
<!-- Generator: Adobe Illustrator 21.1.0, SVG Export Plug-In . SVG Version: 6.00 Build 0)  -->
<svg version="1.1" id="圖層_1" xmlns="http://www.w3.org/2000/svg" xmlns:xlink="http://www.w3.org/1999/xlink" x="0px" y="0px"
	 viewBox="0 0 22.4 28.9" style="enable-background:new 0 0 22.4 28.9;" xml:space="preserve">
<style type="text/css">
	.st0{fill:#FFFFFF;}
</style>
<g>
	<path class="st0" d="M11.9,0C4,0,0,5.7,0,10.4c0,2.9,1.1,5.4,3.4,6.4c0.4,0.2,0.7,0,0.8-0.4c0.1-0.3,0.3-1,0.3-1.3
		c0.1-0.4,0.1-0.6-0.2-0.9c-0.7-0.8-1.1-1.8-1.1-3.3c0-4.2,3.1-8,8.2-8c4.5,0,6.9,2.7,6.9,6.4c0,4.8-2.1,8.8-5.3,8.8
		c-1.7,0-3-1.4-2.6-3.2c0.5-2.1,1.5-4.4,1.5-5.9c0-1.4-0.7-2.5-2.2-2.5c-1.8,0-3.2,1.8-3.2,4.3c0,1.6,0.5,2.6,0.5,2.6
		s-1.8,7.7-2.1,9.1c-0.6,2.7-0.1,6,0,6.3c0,0.2,0.3,0.2,0.4,0.1c0.2-0.2,2.3-2.8,3-5.4c0.2-0.7,1.2-4.6,1.2-4.6
		c0.6,1.1,2.3,2.1,4.1,2.1c5.3,0,9-4.9,9-11.4C22.4,4.6,18.2,0,11.9,0z"/>
</g>
</svg>
