<?xml version="1.0" encoding="utf-8"?>
<!-- Generator: Adobe Illustrator 21.1.0, SVG Export Plug-In . SVG Version: 6.00 Build 0)  -->
<svg version="1.1" id="圖層_1" xmlns="http://www.w3.org/2000/svg" xmlns:xlink="http://www.w3.org/1999/xlink" x="0px" y="0px"
	 viewBox="0 0 28.8 30.4" style="enable-background:new 0 0 28.8 30.4;" xml:space="preserve">
<style type="text/css">
	.st0{fill:#4D4C4C;}
</style>
<path class="st0" d="M14.4,30.4c-4,0-7.9-0.3-11.6-0.9c-1.2-0.2-2.3-1.4-2.4-2.7L0,23.6c-0.1-1.3,0.7-2.8,1.8-3.4
	c2.4-1.2,5.1-2,7.8-2.4l0.6-0.1L10,16.5l-0.2-0.1c-0.6-0.5-1-1.2-1.1-1.8c0-0.2,0-0.3-0.1-0.5l-0.1-0.6l-0.3-0.1
	c-0.4-0.2-0.7-0.6-0.8-1.1L7.2,9.1c0-0.3,0.1-0.7,0.3-0.9C7.5,8.1,7.6,8,7.7,8L8,7.8L7.8,6.5c-0.1-1-0.3-3.2,1.4-4.6
	C10.4,0.7,12.3,0,14.4,0s4,0.7,5.2,1.9C21.2,3.3,21,5.4,21,6.4l-0.1,1l0,0.4L21.1,8c0.1,0.1,0.2,0.1,0.2,0.2c0.2,0.3,0.3,0.6,0.3,1
	l-0.3,3.1c0,0.5-0.3,0.9-0.8,1.1l-0.3,0.1L20,14.6c-0.1,0.6-0.5,1.3-1.1,1.8l-0.2,0.2l-0.1,1.1l0.6,0.1c2.7,0.4,5.3,1.2,7.7,2.4
	c1.1,0.6,2,2.1,1.8,3.4l-0.3,3.3c-0.1,1.3-1.2,2.5-2.4,2.7C22.3,30.1,18.4,30.4,14.4,30.4"/>
</svg>
