<?xml version="1.0" encoding="utf-8"?>
<!-- Generator: Adobe Illustrator 21.1.0, SVG Export Plug-In . SVG Version: 6.00 Build 0)  -->
<svg version="1.1" id="圖層_1" xmlns="http://www.w3.org/2000/svg" xmlns:xlink="http://www.w3.org/1999/xlink" x="0px" y="0px"
	 viewBox="0 0 36.5 36.5" style="enable-background:new 0 0 36.5 36.5;" xml:space="preserve">
<g>
	<path d="M34.6,10.9h-8.2L20.9,0.5c-0.2-0.4-0.8-0.6-1.2-0.4c-0.4,0.2-0.6,0.8-0.4,1.2l5.1,9.6H12.1l5.1-9.6c0.2-0.4,0.1-1-0.4-1.2
		c-0.4-0.2-1-0.1-1.2,0.4L10,10.9H1.8c-1,0-1.8,0.8-1.8,1.8v3.6c0,1,0.8,1.8,1.8,1.8l0,0c0,0.1,0,0.1,0,0.2l1.8,16.4
		c0.1,0.9,0.9,1.6,1.8,1.6H31c0.9,0,1.7-0.7,1.8-1.6l1.8-16.4c0-0.1,0-0.1,0-0.2l0,0c1,0,1.8-0.8,1.8-1.8v-3.6
		C36.5,11.8,35.7,10.9,34.6,10.9z M31,34.6H5.5L3.6,18.2h29.2L31,34.6z M34.6,16.4H1.8v-3.6H9l-0.7,1.4c-0.2,0.4-0.1,1,0.4,1.2
		c0.1,0.1,0.3,0.1,0.4,0.1c0.3,0,0.6-0.2,0.8-0.5l1.2-2.3h14.2l1.2,2.3c0.2,0.3,0.5,0.5,0.8,0.5c0.1,0,0.3,0,0.4-0.1
		c0.4-0.2,0.6-0.8,0.4-1.2l-0.7-1.4h7.2V16.4z"/>
	<path d="M10,32.8c1.5,0,2.7-1.2,2.7-2.7v-7.3c0-1.5-1.2-2.7-2.7-2.7s-2.7,1.2-2.7,2.7v7.3C7.3,31.6,8.5,32.8,10,32.8z M9.1,22.8
		c0-0.5,0.4-0.9,0.9-0.9s0.9,0.4,0.9,0.9v7.3c0,0.5-0.4,0.9-0.9,0.9s-0.9-0.4-0.9-0.9V22.8z"/>
	<path d="M18.2,32.8c1.5,0,2.7-1.2,2.7-2.7v-7.3c0-1.5-1.2-2.7-2.7-2.7s-2.7,1.2-2.7,2.7v7.3C15.5,31.6,16.7,32.8,18.2,32.8z
		 M17.3,22.8c0-0.5,0.4-0.9,0.9-0.9s0.9,0.4,0.9,0.9v7.3c0,0.5-0.4,0.9-0.9,0.9s-0.9-0.4-0.9-0.9V22.8z"/>
	<path d="M26.4,32.8c1.5,0,2.7-1.2,2.7-2.7v-7.3c0-1.5-1.2-2.7-2.7-2.7s-2.7,1.2-2.7,2.7v7.3C23.7,31.6,24.9,32.8,26.4,32.8z
		 M25.5,22.8c0-0.5,0.4-0.9,0.9-0.9s0.9,0.4,0.9,0.9v7.3c0,0.5-0.4,0.9-0.9,0.9s-0.9-0.4-0.9-0.9V22.8z"/>
</g>
</svg>
