<svg id="圖層_1" data-name="圖層 1" xmlns="http://www.w3.org/2000/svg" viewBox="0 0 97.797 86.388"><defs><style>.cls-1{fill:#fc0;}.cls-2{fill:#fecb00;}.cls-3{fill:#020102;}.cls-4{fill:#030202;}.cls-5{fill:#e1c11e;}.cls-6{fill:#dbbd21;}.cls-7{fill:#ebc308;}.cls-8{fill:#f2c908;}.cls-9{fill:#deb910;}.cls-10{fill:#e0bb10;}.cls-11{fill:#006863;}.cls-12{fill:#fdcb01;}.cls-13{fill:#fbcb03;}.cls-14{fill:#176b59;}.cls-15{fill:#156f5d;}.cls-16{fill:#126e5f;}.cls-17{fill:#126e5d;}.cls-18{fill:#086962;}.cls-19{fill:#096a63;}</style></defs><title>icon</title><path class="cls-1" d="M79.366,34.968c-.266-.62-.711-1.2.241-1.612q-.6-.908-1.2-1.816c-4.183,2.436-8.356,4.887-12.561,7.283-.832.474-.613,1-.4,1.656,1.32,4.147,2.608,8.308,3.935,12.455a1.758,1.758,0,0,1-.737,2.4c-1.145.784-1.594.109-2.247-.507-1.721-1.619-3.494-3.191-5.172-4.858-.842-.835-1.346-1.083-2.192.077-1.39,1.907-3.078,3.592-4.482,5.493-.948,1.284-1.711.441-2.63.124-1.138-.39-.821-1.116-.58-1.871.667-2.075,1.328-4.158,2.01-6.229.263-.791.219-1.225-.821-1.178-1.634.073-3.275.033-4.913.015a1.533,1.533,0,0,0-1.535.748c-.047.062-.1.12-.15.182a.361.361,0,0,1-.007-.062,44.5,44.5,0,0,0-4.592,4.059c-.1.095-.193.19-.288.284-1.5,1.317-3.1,2.538-4.482,3.975-1.524,1.583-2.345-.08-3.377-.569-1.309-.624-.091-1.251.139-1.853.139-.365.671-.678.266-1.1-.372-.383-.784-.033-1.156.146-.492.237-.981.481-1.477.7-.8.361-1.751,1.1-1.831-.638,0-.095-.044-.259-.1-.274-2.407-.682-.638-1.51-.084-2.294.135-.193.281-.383.419-.576a3.282,3.282,0,0,0,.4-.627,1.793,1.793,0,0,0-.044-1.794,2.739,2.739,0,0,0-.394-.525c-.529-.744-2.994.1-1.736-2.112a2.308,2.308,0,0,0-.74-.4c-.686-.077-1.025-.4-.8-1.069.237-.7.857-.587,1.36-.4.675.248,1.276.7,1.959.915a6.716,6.716,0,0,0,6.492-1.032,1.425,1.425,0,0,0,.171-.073l0,0c1.247-.594,1.59-2.382,2.837-2.644,2.965-.613,4.752-2.465,6.178-4.894q8.611.022,17.229.04a3.569,3.569,0,0,0,1.247-.16c4.4-1.641,8.793-3.312,13.188-4.975q-1.176-1.089-2.345-2.177c-.357.649-.7.554-1.287.16-13.166-8.87-27.142-9.318-41.669-3.946-.558.208-1.222.846-1.557-.277a10.58,10.58,0,0,0-2.794,1.532,9.225,9.225,0,0,0,6.857,2.9,13.929,13.929,0,0,0,9.862-3.14,27.1,27.1,0,0,1,2.6-1.67A31.934,31.934,0,0,1,44.613,33.6a5.286,5.286,0,0,1-.157.66,1.014,1.014,0,0,1-.091-.19c-1.171,2.148-2.655,3.943-5.467,4.38a10.572,10.572,0,0,0,.656-4.267c-.007-.04-.015-.084-.022-.124.084-.54.135-1.054-.686-.7a13.964,13.964,0,0,0-1.988.89c-2.177,1.382-4.584,1.324-7.017,1.28-1.346-.029-2.046-.912-2.754-1.82-1.652-2.112-2.137-4.654-2.611-7.2-1.276.456-2.017,1.616-3.089,2.341,1.039.47.489.926.033,1.466-1.754,2.075-3.323,4.256-3.782,7.028a10.186,10.186,0,0,0-.489,1.929,9.541,9.541,0,0,0,0,2.987,10.21,10.21,0,0,0,.463,1.831c.536,3.337,2.447,5.908,4.767,8.17,5.044,4.913,11.3,7.422,18.112,8.582,9.76,1.663,19.22.751,28.156-3.782a23.42,23.42,0,0,0,9.61-8.381A14.055,14.055,0,0,0,79.366,34.968ZM38.1,34.519a.853.853,0,0,1,.678.088c.27.222.073.737.036,1.08a8.391,8.391,0,0,1-3.162,5.85c-.066.055-.131.109-.2.16-6.007,2.746-10.945-.791-11.459-8.731C28.471,37.229,33.172,37.4,38.1,34.519ZM47.345,55.84c-.894.128-1.864,1.215-2.7-.226-.667-1.145-1.492-2.2-2.247-3.3-.029-.15-.1-.339-.142-.5s-.055-.274,0-.325c1.229-1.16,2.455-2.331,3.786-3.363a.806.806,0,0,1,.153-.1c.412-.179.274.656.6.755q.553,2.757,1.105,5.514C48.023,54.925,48.366,55.694,47.345,55.84Z"/><path class="cls-2" d="M46.083,47.142c-.047.062-.1.12-.15.182a.361.361,0,0,1-.007-.062Z"/><path d="M45.926,47.262a.361.361,0,0,0,.007.062c.051-.062.1-.12.15-.182Z"/><path d="M65.85,38.823c4.205-2.4,8.377-4.847,12.561-7.283.171-1.295.113-2.407-1.689-2.163-4.395,1.663-8.786,3.333-13.188,4.975a3.569,3.569,0,0,1-1.247.16q-8.616-.011-17.229-.04c-1.426,2.429-3.213,4.282-6.178,4.894-1.247.263-1.59,2.05-2.837,2.644l0,0a1.425,1.425,0,0,1-.171.073,6.716,6.716,0,0,1-6.492,1.032c-.682-.212-1.284-.667-1.959-.915-.5-.19-1.123-.306-1.36.4-.23.671.109.992.8,1.069a2.308,2.308,0,0,1,.74.4c-1.258,2.214,1.207,1.368,1.736,2.112a2.739,2.739,0,0,1,.394.525,1.793,1.793,0,0,1,.044,1.794,3.282,3.282,0,0,1-.4.627c-.139.193-.284.383-.419.576-.554.784-2.323,1.612.084,2.294.055.015.095.179.1.274.08,1.736,1.028,1,1.831.638.5-.222.985-.467,1.477-.7.372-.179.784-.529,1.156-.146.4.419-.128.733-.266,1.1-.23.6-1.448,1.229-.139,1.853,1.032.489,1.853,2.152,3.377.569,1.379-1.437,2.98-2.659,4.482-3.975.095-.095.19-.19.288-.284a44.5,44.5,0,0,1,4.592-4.059l.157-.12a1.533,1.533,0,0,1,1.535-.748c1.638.018,3.279.058,4.913-.015,1.039-.047,1.083.387.821,1.178-.682,2.072-1.342,4.154-2.01,6.229-.241.755-.558,1.481.58,1.871.919.317,1.681,1.16,2.63-.124,1.4-1.9,3.093-3.585,4.482-5.493.846-1.16,1.349-.912,2.192-.077,1.678,1.667,3.45,3.239,5.172,4.858.653.616,1.1,1.291,2.247.507a1.758,1.758,0,0,0,.737-2.4c-1.328-4.147-2.615-8.308-3.935-12.455C65.237,39.818,65.019,39.3,65.85,38.823ZM37.009,47.568c-.171.3-.343.6-.664,1.16a27.814,27.814,0,0,1-.171-5.194c.631-.029.638.463.824.784C38.347,45.395,38.3,46.478,37.009,47.568Z"/><path class="cls-2" d="M44.613,33.6a5.286,5.286,0,0,1-.157.66,1.014,1.014,0,0,1-.091-.19C44.449,33.914,44.533,33.753,44.613,33.6Z"/><path d="M46.389,22.753a27.1,27.1,0,0,0-2.6,1.67,13.929,13.929,0,0,1-9.862,3.14,9.225,9.225,0,0,1-6.857-2.9c-.835-.54-1.67-1.08-2.593-1.678v3.516c.474,2.542.959,5.084,2.611,7.2.708.908,1.408,1.791,2.754,1.82,2.433.044,4.84.1,7.017-1.28a13.964,13.964,0,0,1,1.988-.89c.821-.35.77.164.686.7.007.04.015.084.022.124a10.572,10.572,0,0,1-.656,4.267c2.812-.438,4.3-2.232,5.467-4.38.084-.153.168-.314.248-.47A31.934,31.934,0,0,0,46.389,22.753ZM33.237,31.926a.722.722,0,0,1-1.069.306,6.17,6.17,0,0,0-2.247-.569c-.6-.04-1.543.31-1.426-.762.106-.963,1.076-.423,1.433-.616a5.568,5.568,0,0,1,2.79.653C33.092,31.138,33.474,31.423,33.237,31.926Zm6.7-.241a5.134,5.134,0,0,0-2.1.452c-.5.222-1.12.47-1.36-.27-.222-.686.412-.886.9-1.116a6.263,6.263,0,0,1,2.506-.5c.518.084,1.353-.113,1.393.708C41.319,31.82,40.55,31.682,39.941,31.685Z"/><path class="cls-3" d="M33.237,31.926a.722.722,0,0,1-1.069.306,6.17,6.17,0,0,0-2.247-.569c-.6-.04-1.543.31-1.426-.762.106-.963,1.076-.423,1.433-.616a5.568,5.568,0,0,1,2.79.653C33.092,31.138,33.474,31.423,33.237,31.926Z"/><path class="cls-3" d="M41.279,30.956c.04.864-.729.726-1.339.729a5.134,5.134,0,0,0-2.1.452c-.5.222-1.12.47-1.36-.27-.222-.686.412-.886.9-1.116a6.263,6.263,0,0,1,2.506-.5C40.4,30.332,41.239,30.135,41.279,30.956Z"/><path class="cls-3" d="M44.613,33.6a5.286,5.286,0,0,1-.157.66,1.014,1.014,0,0,1-.091-.19C44.449,33.914,44.533,33.753,44.613,33.6Z"/><path d="M79.789,48.185A22.909,22.909,0,0,1,68.6,58.211C55.1,64.378,41.6,64.236,28.23,57.773a24.855,24.855,0,0,1-7.13-5.281c-6.926-7.236-6.813-16.547.288-23.644,1.039.47.489.926.033,1.466-1.754,2.075-3.323,4.256-3.782,7.028a10.186,10.186,0,0,0-.489,1.929,9.541,9.541,0,0,0,0,2.987,10.21,10.21,0,0,0,.463,1.831c.536,3.337,2.447,5.908,4.767,8.17,5.044,4.913,11.3,7.422,18.112,8.582,9.76,1.663,19.22.751,28.156-3.782a23.42,23.42,0,0,0,9.61-8.381,14.055,14.055,0,0,0,1.109-13.71c-.266-.62-.711-1.2.241-1.612C82.642,38.261,82.4,43.258,79.789,48.185Z"/><path d="M74.377,27.2c-.357.649-.7.554-1.287.16-13.166-8.87-27.142-9.318-41.669-3.946-.558.208-1.222.846-1.557-.277a33.894,33.894,0,0,1,13.148-3.8c9.822-1.08,19.235.219,27.908,5.274A11.454,11.454,0,0,1,74.377,27.2Z"/><path d="M38.774,34.607a.853.853,0,0,0-.678-.088c-4.924,2.878-9.625,2.71-14.107-1.554.514,7.94,5.452,11.478,11.459,8.731.069-.051.135-.106.2-.16a8.391,8.391,0,0,0,3.162-5.85C38.847,35.343,39.044,34.829,38.774,34.607Zm-9.5,5.135c-.573-.372-1.681.15-1.769-.85-.055-.649.689-.452,1.207-.46.5.244,1.393.062,1.379,1.01C30.079,39.924,29.6,39.957,29.269,39.742Zm5.857-.853c-.168,1.069-1.317.463-1.922.9-.328.237-.857-.066-.777-.419.2-.868,1.08-.766,1.6-.963C34.572,38.425,35.214,38.341,35.127,38.888Z"/><path class="cls-4" d="M30.086,39.443c-.007.481-.489.514-.817.3-.573-.372-1.681.15-1.769-.85-.055-.649.689-.452,1.207-.46C29.2,38.677,30.1,38.494,30.086,39.443Z"/><path class="cls-4" d="M35.127,38.888c-.168,1.069-1.317.463-1.922.9-.328.237-.857-.066-.777-.419.2-.868,1.08-.766,1.6-.963C34.572,38.425,35.214,38.341,35.127,38.888Z"/><path d="M47.345,55.84c-.894.128-1.864,1.215-2.7-.226-.667-1.145-1.492-2.2-2.247-3.3-.029-.15-.1-.339-.142-.5s-.055-.274,0-.325c1.229-1.16,2.455-2.331,3.786-3.363a.806.806,0,0,1,.153-.1c.412-.179.274.656.6.755q.553,2.757,1.105,5.514C48.023,54.925,48.366,55.694,47.345,55.84Z"/><path class="cls-5" d="M44.613,33.6a5.286,5.286,0,0,1-.157.66,1.014,1.014,0,0,1-.091-.19C44.449,33.914,44.533,33.753,44.613,33.6Z"/><path class="cls-6" d="M46.083,47.142c-.047.062-.1.12-.15.182a.361.361,0,0,1-.007-.062Z"/><path class="cls-1" d="M37.009,47.568c-.171.3-.343.6-.664,1.16a27.814,27.814,0,0,1-.171-5.194c.631-.029.638.463.824.784C38.347,45.395,38.3,46.478,37.009,47.568Z"/><path class="cls-7" d="M41.279,30.956c.04.864-.729.726-1.339.729a5.134,5.134,0,0,0-2.1.452c-.5.222-1.12.47-1.36-.27-.222-.686.412-.886.9-1.116a6.263,6.263,0,0,1,2.506-.5C40.4,30.332,41.239,30.135,41.279,30.956Z"/><path class="cls-8" d="M33.237,31.926a.722.722,0,0,1-1.069.306,6.17,6.17,0,0,0-2.247-.569c-.6-.04-1.543.31-1.426-.762.106-.963,1.076-.423,1.433-.616a5.568,5.568,0,0,1,2.79.653C33.092,31.138,33.474,31.423,33.237,31.926Z"/><path class="cls-9" d="M35.127,38.888c-.168,1.069-1.317.463-1.922.9-.328.237-.857-.066-.777-.419.2-.868,1.08-.766,1.6-.963C34.572,38.425,35.214,38.341,35.127,38.888Z"/><path class="cls-10" d="M30.086,39.443c-.007.481-.489.514-.817.3-.573-.372-1.681.15-1.769-.85-.055-.649.689-.452,1.207-.46C29.2,38.677,30.1,38.494,30.086,39.443Z"/><path d="M73.272,59.969a1.276,1.276,0,1,1,1.276-1.276A1.278,1.278,0,0,1,73.272,59.969Zm0-2.439a1.163,1.163,0,1,0,1.163,1.163A1.164,1.164,0,0,0,73.272,57.53Z"/><path d="M73.563,58.9l.057-.022a.453.453,0,0,0,.293-.461c0-.313-.206-.485-.581-.485h-.585V59.4h.166v-.471h.419a.653.653,0,0,0,.067,0l.031,0,.016.026.272.45h.18l-.3-.447Zm-.232-.113h-.419v-.716h.419c.373,0,.428.221.428.352S73.7,58.788,73.331,58.788Z"/><path class="cls-11" d="M46.782,86.369q-15.141,0-30.283.012c-.707,0-.966-.05-.768-.9,1.346-5.763,2.637-11.54,3.921-17.317.141-.635.336-.907,1.076-.906q30.323.039,60.646,0c.793,0,.845.194.683.9q-1.99,8.61-3.888,17.242c-.175.8-.49.986-1.266.984Q61.842,86.347,46.782,86.369Z"/><path class="cls-12" d="M68.587,80.3c-1.025,0-1.908-.011-2.79.005-.408.008-.486-.093-.374-.513.622-2.34,1.226-4.685,1.784-7.04.108-.456.29-.56.7-.551.811.019,1.623.007,2.435.006.767,0,.767,0,.983-.86-1.1,0-2.175-.026-3.252.011-.5.017-.522-.189-.407-.6a6.851,6.851,0,0,0-2.048,3.571c-.438,2.05-1,4.073-1.5,6.109-.259,1.046-.535,2.088-.76,3.141-.258,1.207-.238,1.234-1.426,1.206-1.619-.039-1.493.394-1.025-1.549.477-1.981.973-3.957,1.471-5.976-.4.085-.558.6-.877.449a10.774,10.774,0,0,1-1.646-1.006c-.179-.126.026-.261.138-.376a46.276,46.276,0,0,0,5.634-6.87.418.418,0,0,1,.674-.139c.271.173.574.3.832.485.456.33.784.436.867-.3.035-.315.263-.421.585-.42q4.627.014,9.253,0c.357,0,.513.1.377.471-.009.025-.022.05-.029.076-.489,1.716-.489,1.716-2.331,1.716-.487,0-.974.013-1.461-.005a.524.524,0,0,0-.626.565c-.016.49.374.284.585.29.838.024,1.678.028,2.516,0,.448-.013.638.053.5.578-.413,1.56-.777,3.133-1.159,4.7-.178.731-.375,1.459-.519,2.2-.087.446-.262.65-.75.632-.946-.034-1.894-.01-2.841-.009a.71.71,0,0,0-.732.336c-.266.421-.269.559.242.7.988.267,1.954.613,2.938.9.364.106.474.232.323.623a8.759,8.759,0,0,0-.356,1.407c-.087.425-.284.484-.685.353-1.359-.443-2.736-.828-4.093-1.276a1.058,1.058,0,0,0-1.045.137,7.849,7.849,0,0,1-4.19,1.305c-.486.018-.93.046-.567-.662A1.7,1.7,0,0,0,64,83.646c.131-.784.269-1.411,1.36-1.478A4.718,4.718,0,0,0,68.587,80.3Z"/><path class="cls-12" d="M40.25,73.257a34.769,34.769,0,0,0,5.8-3.883,1.074,1.074,0,0,1,.724-.284q3.614.005,7.227.007a1.007,1.007,0,0,1,.233.064l-2.948,3.048h3.106A9.128,9.128,0,0,0,55.77,72.2c.853-.132.878.3.722.925q-.822,3.292-1.634,6.586a.665.665,0,0,1-.791.6,16.2,16.2,0,0,0-1.867,0c-.373.015-.9-.227-.942.5a5.368,5.368,0,0,1-2.342.288.53.53,0,0,1-.118-.363c.038-.467-.265-.413-.573-.442a.519.519,0,0,0-.628.464c-.039.182.045.406-.03.561-.282.586.111.494.436.456.644-.074,1.291-.142,1.929-.256.291-.052.493-.023.556.279.2.94.375,1.884.6,3.024-1.894-1.272-3.665-.337-5.414-.2-1.374.108-1.408.138-1.077-1.242.236-.985.419-1.982.625-2.973l-.282-.188c-.907.964-1.8,1.944-2.728,2.884-.544.55-1,1.461-1.7,1.512-.673.049-1.4-.56-2.091-.914a1.519,1.519,0,0,1-.8-.578c1.955-.047,2.88-1.5,4.146-2.772-1.161.074-.9-.469-.711-1.11.342-1.181.3-1.195,1.526-1.195h9.258c.189,0,.379,0,.568-.005.291-.013.347-.245.352-.456.005-.232-.214-.19-.362-.2-.243-.011-.487,0-.731,0H39.758c-.011-.135-.035-.2-.017-.24.252-.648.12-1.6.665-1.92.528-.31,1.367-.1,2.069-.1q4.994-.006,9.988,0c.189,0,.379-.006.568,0,.278.007.5-.085.511-.39.016-.433-.344-.257-.531-.258-2.382-.014-4.765-.053-7.146.009-1.272.033-2.585-.321-3.818.312-.215.111-.381-.106-.536-.271C41.128,74.118,40.723,73.73,40.25,73.257Z"/><path class="cls-2" d="M22.086,76.739c.533-.935.091-1-.6-.985-1.543.036-1.53.014-1.1-1.535.258-.934.511-1.874.678-2.826.085-.488.319-.527.708-.524,1.57.012,3.145-.068,4.709.032.937.06,1.349-.3,1.4-1.141.039-.586.31-.739.828-.672a3.941,3.941,0,0,0,.406,0c.431.011.983-.135,1.265.076.391.294-.092.761-.156,1.16-.069.436.048.562.492.556,1.678-.023,3.357.016,5.035-.023.6-.014.763.175.62.73q-.493,1.916-.962,3.838c-.043.176-.1.315-.3.318-.676.009-1.353.016-2.029.008-.377,0-.248-.28-.2-.469.14-.576.3-1.147.451-1.72.046-.171.195-.37-.124-.432-.2-.038-.378-.045-.454.2a2.3,2.3,0,0,0-.224.688c.046.956-.544,1.157-1.319,1.239-.7.074-1.384.259-2.081.322-.74.067-1.2.247-1.325,1.137-.09.633.121.611.543.61,1.949,0,3.9.016,5.847-.015.553-.009.731.145.568.68-.125.411-.228.83-.324,1.249s-.418.278-.657.279c-1.949.012-3.9.027-5.847,0-.614-.01-.949.108-1.016.808a7.706,7.706,0,0,1-.466,1.791c-.152.432,0,.526.383.525,1.245,0,2.491-.007,3.736,0,.386,0,.556-.127.638-.538.293-1.469.314-1.465,1.83-1.467.189,0,.38.008.568,0,.4-.023.515.087.386.514a23.6,23.6,0,0,0-.787,3.044c-.1.648-.411.682-.918.679-2.707-.014-5.414-.005-8.121-.007-.892,0-.937-.084-.7-.979.329-1.249.59-2.517.961-3.753.182-.606-.072-.616-.521-.611-1.408.013-2.816-.013-4.223.014-.49.009-.63-.16-.51-.611s.217-.888.339-1.328c.1-.369.426-.27.676-.271,1.435-.009,2.87,0,4.3,0,.331,0,.667.025.779-.4.12-.459.16-.793-.528-.638C23.908,76.478,23.055,76.58,22.086,76.739Z"/><path class="cls-13" d="M53.946,83.2a.4.4,0,0,1-.316.525,4.3,4.3,0,0,0-.445.187c-1.6.661-1.6.661-1.839-1.095-.178-1.284-.178-1.284,1.046-1.76,1-.389,1-.389,1.256.7.086.365.18.728.263,1.093A2.99,2.99,0,0,1,53.946,83.2Z"/><path class="cls-14" d="M72.862,78.035c-.141-.075-.545.232-.522-.26.022-.476.4-.421.71-.384.212.025.609-.2.587.248C73.616,78.057,73.262,78.094,72.862,78.035Z"/><path class="cls-15" d="M73.772,74.447c.233.077.59-.119.59.269,0,.567-.469.4-.784.407-.2.005-.534.132-.51-.292C73.1,74.28,73.541,74.55,73.772,74.447Z"/><path class="cls-16" d="M69.068,78.055c-.19-.076-.583.173-.542-.326.038-.472.41-.353.669-.334.215.016.614-.21.611.253C69.8,78.136,69.39,78.03,69.068,78.055Z"/><path class="cls-17" d="M69.926,74.459c.2.083.594-.183.571.313-.022.472-.4.369-.658.348-.217-.017-.61.209-.622-.243C69.2,74.383,69.618,74.487,69.926,74.459Z"/><path class="cls-18" d="M48.692,71.4c-.567,1.1-1.517.776-2.385.8C46.947,71.343,47.19,71.261,48.692,71.4Z"/><path class="cls-19" d="M29.57,73.254c-1.988.328-3.974.661-5.964.979-.223.036-.653.24-.631-.119s-.171-1.015.593-1.009c.945.007,1.89,0,2.835,0H29.55Z"/><path class="cls-1" d="M76.2,84.855a.952.952,0,1,1,.952-.952A.953.953,0,0,1,76.2,84.855Zm0-1.819a.867.867,0,1,0,.867.867A.868.868,0,0,0,76.2,83.036Z"/><path class="cls-1" d="M76.419,84.059l.042-.016a.338.338,0,0,0,.218-.344c0-.233-.154-.362-.433-.362H75.81V84.43h.124v-.351h.313a.487.487,0,0,0,.05,0l.023,0,.012.02.2.335h.134l-.223-.333Zm-.173-.084h-.313V83.44h.313c.278,0,.319.165.319.263S76.524,83.974,76.246,83.974Z"/></svg>