<svg id="圖層_1" data-name="圖層 1" xmlns="http://www.w3.org/2000/svg" viewBox="0 0 97.797 86.388"><defs><style>.cls-1,.cls-2{fill:#231815;}.cls-2{fill-rule:evenodd;}</style></defs><title>icon</title><path class="cls-1" d="M80.106,64.649H17.691A1.346,1.346,0,0,1,16.346,63.3V30.753a1.346,1.346,0,0,1,1.345-1.346H80.106a1.346,1.346,0,0,1,1.345,1.346V63.3A1.346,1.346,0,0,1,80.106,64.649ZM70.081,61.958h8.68V53.4a1.42,1.42,0,0,1-.226.019,8.461,8.461,0,0,0-8.452,8.451C70.083,61.9,70.083,61.929,70.081,61.958Zm-39.68,0H67.4c0-.029,0-.058,0-.088A11.155,11.155,0,0,1,78.535,50.727a1.42,1.42,0,0,1,.226.019V43.31a1.42,1.42,0,0,1-.226.019A11.155,11.155,0,0,1,67.393,32.187c0-.03,0-.059,0-.088H30.4c0,.029,0,.058,0,.088A11.155,11.155,0,0,1,19.262,43.33a1.42,1.42,0,0,1-.226-.019v7.436a1.42,1.42,0,0,1,.226-.019A11.155,11.155,0,0,1,30.4,61.869C30.4,61.9,30.4,61.929,30.4,61.958Zm-11.366,0h8.68c0-.029,0-.058,0-.088a8.461,8.461,0,0,0-8.452-8.451,1.42,1.42,0,0,1-.226-.019ZM70.081,32.1c0,.029,0,.058,0,.088a8.461,8.461,0,0,0,8.452,8.451,1.42,1.42,0,0,1,.226.019V32.1Zm-51.046,0v8.559a1.42,1.42,0,0,1,.226-.019,8.461,8.461,0,0,0,8.452-8.451c0-.03,0-.059,0-.088ZM48.9,58.966c-5.122,0-9.29-5.355-9.29-11.938s4.168-11.939,9.29-11.939,9.29,5.356,9.29,11.939S54.02,58.966,48.9,58.966Zm0-21.186c-3.638,0-6.6,4.148-6.6,9.248s2.961,9.247,6.6,9.247,6.6-4.148,6.6-9.247S52.537,37.781,48.9,37.781Z"/><path class="cls-2" d="M32.988,49.082a2.054,2.054,0,1,0-2.054-2.054,2.054,2.054,0,0,0,2.054,2.054Z"/><path class="cls-1" d="M32.987,50.428a3.4,3.4,0,1,1,3.4-3.4A3.4,3.4,0,0,1,32.987,50.428Zm0-4.108a.708.708,0,1,0,.71.709A.709.709,0,0,0,32.987,46.319Z"/><path class="cls-2" d="M64.778,49.082a2.054,2.054,0,1,0-2.054-2.054,2.054,2.054,0,0,0,2.054,2.054Z"/><path class="cls-1" d="M64.779,50.428a3.4,3.4,0,1,1,3.4-3.4A3.4,3.4,0,0,1,64.779,50.428Zm0-4.108a.708.708,0,1,0,.708.709A.71.71,0,0,0,64.779,46.319Z"/><path class="cls-1" d="M40.175,86.388H37.927l-2.038-6.456H29.838l-2.064,6.456H25.551l6.025-18.439h2.575Zm-4.9-8.324-2.418-7.633-2.4,7.633Z"/><path class="cls-1" d="M55.673,69.686H49.99v16.7H47.86v-16.7H42.149V67.949H55.673Z"/><path class="cls-1" d="M70.9,86.388H68.833V70.575l-2.783,7.567H64.025l-2.784-7.567V86.388H59.177V67.949H61.96l3.084,8.4,3.071-8.4H70.9Z"/></svg>