<svg id="圖層_1" data-name="圖層 1" xmlns="http://www.w3.org/2000/svg" viewBox="0 0 97.797 86.388"><defs><style>.cls-1{fill:#231815;}</style></defs><title>icon</title><path class="cls-1" d="M74.552,65.548h0l-24.341-.011h-.088l-26.894-.011a6.145,6.145,0,0,1-6.135-6.143L17.1,26.7a6.146,6.146,0,0,1,6.138-6.136h0l51.323.022A6.157,6.157,0,0,1,80.7,26.732L80.69,59.412a6.162,6.162,0,0,1-6.138,6.136Zm-24.343-2.7h0l24.341.011h0A3.472,3.472,0,0,0,78,59.411l.015-32.68a3.467,3.467,0,0,0-3.447-3.45l-51.323-.022h0a3.454,3.454,0,0,0-3.449,3.447l-.013,32.679a3.453,3.453,0,0,0,3.447,3.45l26.892.011Z"/><path class="cls-1" d="M30.624,58.171h0l-5.419,0a1.346,1.346,0,0,1,0-2.691h0l5.419,0a1.346,1.346,0,0,1,0,2.691Z"/><path class="cls-1" d="M43.959,58.177h0l-6.74,0a1.346,1.346,0,0,1,0-2.691h0l6.74,0a1.346,1.346,0,0,1,0,2.691Z"/><path class="cls-1" d="M79.354,41.143h0l-60.91-.026A1.344,1.344,0,0,1,17.1,39.77l0-7.8a1.345,1.345,0,0,1,1.345-1.345h0l60.91.026A1.344,1.344,0,0,1,80.7,32l0,7.8A1.345,1.345,0,0,1,79.354,41.143ZM19.791,38.426l58.219.026,0-5.112-58.219-.026Z"/><path class="cls-1" d="M30.33,84.888a8.6,8.6,0,0,1-5.031,1.5,6.4,6.4,0,0,1-5.441-2.458Q18,81.472,18,76.819a12,12,0,0,1,1.806-7.036,6.3,6.3,0,0,1,5.5-2.54,10.475,10.475,0,0,1,2.64.343,6.492,6.492,0,0,1,2.1.9l-.706,1.686a8.061,8.061,0,0,0-4.038-1.047,4.253,4.253,0,0,0-3.79,1.847q-1.245,1.85-1.244,5.848,0,7.683,5.029,7.686a8.628,8.628,0,0,0,4.365-1.3Z"/><path class="cls-1" d="M47.763,86.045H45.515l-2.035-6.458-6.051,0-2.067,6.456-2.222,0L39.175,67.6l2.575,0Zm-4.9-8.326-2.414-7.633-2.409,7.631Z"/><path class="cls-1" d="M63.8,86.052H61.12l-5.407-8.381H53.334l0,8.377-2.142,0L51.2,67.608l5.213,0a6.255,6.255,0,0,1,4.148,1.275,4.371,4.371,0,0,1,1.522,3.547,4.515,4.515,0,0,1-1.111,3,5.611,5.611,0,0,1-3.06,1.783ZM53.336,75.8h2.706a4.037,4.037,0,0,0,2.757-.92,2.94,2.94,0,0,0,1.058-2.319q0-3.085-3.763-3.086H53.338Z"/><path class="cls-1" d="M67.257,67.615l3.633,0a7.378,7.378,0,0,1,5.8,2.465,9.839,9.839,0,0,1,2.179,6.764,9.686,9.686,0,0,1-2.217,6.8,7.366,7.366,0,0,1-5.68,2.409l-3.724,0Zm2.135,16.572h1.516a5,5,0,0,0,4.157-1.945,8.546,8.546,0,0,0,1.529-5.4,8.543,8.543,0,0,0-1.531-5.39,4.987,4.987,0,0,0-4.149-1.969H69.4Z"/></svg>