<svg id="圖層_1" data-name="圖層 1" xmlns="http://www.w3.org/2000/svg" viewBox="0 0 97.797 86.388"><defs><style>.cls-1{fill:#231815;}</style></defs><title>icon</title><path class="cls-1" d="M76.244,77.757H74.779a1.344,1.344,0,0,1-1.294-.979,8.92,8.92,0,0,0-17.158,0,1.345,1.345,0,0,1-1.294.979H42.763a1.345,1.345,0,0,1-1.294-.979,8.92,8.92,0,0,0-17.158,0,1.344,1.344,0,0,1-1.294.979H21.553a3.929,3.929,0,0,1-3.925-3.924V59.091a1.345,1.345,0,1,1,2.69,0,1.25,1.25,0,0,0,1.235,1.233H55.07A1.25,1.25,0,0,0,56.3,59.091V50.1a1.345,1.345,0,0,1,1.327-1.345l9.384-.13h.044a8.8,8.8,0,0,1,5.764,3.138l4.81,6.679a13.723,13.723,0,0,1,2.536,7.86v7.532A3.929,3.929,0,0,1,76.244,77.757Zm-.5-2.691h.5a1.25,1.25,0,0,0,1.235-1.233V66.3a10.973,10.973,0,0,0-2.029-6.286l-4.81-6.68a6.534,6.534,0,0,0-3.576-2.021h-.013l-8.058.111v7.666a3.928,3.928,0,0,1-3.923,3.924H21.553a3.928,3.928,0,0,1-1.235-.2V73.833a1.25,1.25,0,0,0,1.235,1.233h.5a11.61,11.61,0,0,1,21.683,0H54.065a11.61,11.61,0,0,1,21.683,0Z"/><path class="cls-1" d="M64.906,86.388a6.642,6.642,0,1,1,6.642-6.642A6.65,6.65,0,0,1,64.906,86.388Zm0-10.592a3.95,3.95,0,1,0,3.952,3.95A3.956,3.956,0,0,0,64.906,75.8Z"/><path class="cls-1" d="M32.891,86.388a6.642,6.642,0,1,1,6.64-6.642A6.65,6.65,0,0,1,32.891,86.388Zm0-10.592a3.95,3.95,0,1,0,3.95,3.95A3.956,3.956,0,0,0,32.891,75.8Z"/><path class="cls-1" d="M55.07,62.727H21.553A3.93,3.93,0,0,1,17.628,58.8V32.294a3.93,3.93,0,0,1,3.925-3.925H55.07a3.928,3.928,0,0,1,3.923,3.925V58.8A3.928,3.928,0,0,1,55.07,62.727ZM21.553,31.06a1.236,1.236,0,0,0-1.235,1.233V58.8a1.251,1.251,0,0,0,1.235,1.233H55.07A1.25,1.25,0,0,0,56.3,58.8V32.294A1.25,1.25,0,0,0,55.07,31.06Z"/></svg>