<svg id="圖層_1" data-name="圖層 1" xmlns="http://www.w3.org/2000/svg" viewBox="0 0 97.797 86.388"><defs><style>.cls-1{fill:#1c7d82;}.cls-1,.cls-10,.cls-2,.cls-3,.cls-4,.cls-5{fill-rule:evenodd;}.cls-2{fill:#900;}.cls-3{fill:#1a1a1a;}.cls-4{fill:#d1c2b0;}.cls-5{fill:#f7edde;}.cls-6{fill:#6b3617;}.cls-7{fill:#a37030;}.cls-8{fill:#fff;}.cls-9{fill:#3badba;}.cls-10{fill:#a1ba05;}</style></defs><title>icon</title><path class="cls-1" d="M48.9,65.831c21.845,0,39.554,4.6,39.555,10.278S70.744,86.387,48.9,86.388,9.344,81.786,9.344,76.11,27.053,65.831,48.9,65.831"/><polygon class="cls-2" points="49.488 15.223 86.637 47.162 76.503 47.162 76.503 42.438 22.475 42.439 22.475 47.163 12.341 47.163 49.488 15.223"/><polygon class="cls-3" points="49.488 18.605 82.705 47.162 73.644 47.162 73.644 42.938 25.334 42.939 25.334 47.163 16.273 47.163 49.488 18.605"/><polygon class="cls-4" points="49.488 20.228 64.436 33.079 79.384 45.931 49.489 45.931 19.594 45.932 34.541 33.08 49.488 20.228"/><polygon class="cls-5" points="49.488 21.208 63.297 33.08 77.105 44.951 73.644 44.951 73.644 80.131 25.335 80.132 25.334 44.952 21.873 44.952 35.68 33.08 49.488 21.208"/><rect class="cls-6" x="42.656" y="54.477" width="14.108" height="25.654"/><rect class="cls-7" x="53.612" y="65.246" width="1.549" height="4.115"/><rect class="cls-8" x="44.686" y="31.632" width="9.604" height="9.604"/><rect class="cls-9" x="45.416" y="32.361" width="3.811" height="3.812"/><rect class="cls-9" x="49.749" y="32.361" width="3.812" height="3.812"/><rect class="cls-9" x="45.416" y="36.695" width="3.811" height="3.812"/><rect class="cls-9" x="49.75" y="36.695" width="3.812" height="3.812"/><rect class="cls-8" x="58.749" y="54.477" width="13.091" height="9.604"/><rect class="cls-9" x="59.743" y="55.206" width="5.195" height="3.812"/><rect class="cls-9" x="65.65" y="55.206" width="5.196" height="3.812"/><rect class="cls-9" x="59.743" y="59.54" width="5.195" height="3.812"/><rect class="cls-9" x="65.65" y="59.54" width="5.196" height="3.812"/><rect class="cls-8" x="28.183" y="54.478" width="13.091" height="9.604"/><rect class="cls-9" x="29.177" y="55.207" width="5.195" height="3.812"/><rect class="cls-9" x="35.084" y="55.207" width="5.195" height="3.812"/><rect class="cls-9" x="29.177" y="59.54" width="5.195" height="3.812"/><rect class="cls-9" x="35.084" y="59.54" width="5.195" height="3.812"/><path class="cls-10" d="M25.659,74.549a4.115,4.115,0,1,1-4.114,4.114,4.114,4.114,0,0,1,4.114-4.114"/><path class="cls-10" d="M30.816,74.548A4.115,4.115,0,1,1,26.7,78.662a4.114,4.114,0,0,1,4.115-4.114"/><path class="cls-10" d="M36.293,74.548a4.115,4.115,0,1,1-4.114,4.114,4.114,4.114,0,0,1,4.114-4.114"/><path class="cls-10" d="M62.186,74.548a4.115,4.115,0,1,1-4.114,4.114,4.114,4.114,0,0,1,4.114-4.114"/><path class="cls-10" d="M67.343,74.548a4.115,4.115,0,1,1-4.114,4.114,4.114,4.114,0,0,1,4.114-4.114"/><path class="cls-10" d="M72.821,74.548a4.115,4.115,0,1,1-4.114,4.114,4.114,4.114,0,0,1,4.114-4.114"/></svg>