<svg id="圖層_1" data-name="圖層 1" xmlns="http://www.w3.org/2000/svg" viewBox="0 0 97.797 86.388"><defs><style>.cls-1{fill:#fff;}.cls-1,.cls-2,.cls-3{fill-rule:evenodd;}.cls-2{fill:#003893;}.cls-3{fill:#e50012;}</style></defs><title>icon</title><path class="cls-1" d="M48.393,83.306A37.441,37.441,0,1,0,10.952,45.865,37.513,37.513,0,0,0,48.393,83.306Z"/><path class="cls-2" d="M48.9,4.667a40.861,40.861,0,1,0,40.86,40.861A40.861,40.861,0,0,0,48.9,4.667Zm0,77.006h0A36.146,36.146,0,1,1,85.044,45.527,36.146,36.146,0,0,1,48.9,81.673Z"/><path class="cls-3" d="M50.434,21.425v16.24h20.43V21.425Zm15.192,11H55.672V26.663h9.953v5.762ZM50.434,47.093H56.2v5.239H49.91V68.571H70.864V63.333H56.2V58.094H70.864V41.331H50.434v5.762Zm10.477,0h5.238v5.239H60.911V47.093ZM43.021,35.8h0L45.2,38.188l3.143-3.143L43.2,29.391,38.385,32.6V26.663h8.382V21.425H33.147V32.542l-4.191-3.26-5.762,5.762,2.619,3.667,3.667-3.143,2.881,2.881.786-.786v5.879l-4.191-3.26-5.762,5.762,2.619,3.667L29.48,46.57l2.881,2.881.786-.786v3.667H24.765v5.239h8.382v5.762H24.765v5.239h22V63.333H38.385V57.571h8.382V52.332H38.385V49.887l4.636-3.09L45.2,49.189l3.143-3.143L43.2,40.392,38.385,43.6V38.886Z"/></svg>