<svg id="圖層_1" data-name="圖層 1" xmlns="http://www.w3.org/2000/svg" viewBox="0 0 97.797 86.388"><defs><style>.cls-1{fill:#006546;}.cls-2{fill:#fff;}.cls-3{fill:#f60;}.cls-4{fill:#fe000c;}</style></defs><title>icon</title><rect class="cls-1" x="16.266" y="12.572" width="65.265" height="73.816"/><path class="cls-2" d="M57.013,79.122v2.769H41.358V79.119H29.511c-1.159,0-2.1-1.318-2.1-2.943L22.457,21.549a2.779,2.779,0,0,1,2.579-2.944H72.9a2.78,2.78,0,0,1,2.58,2.944l-4.9,54.627c0,1.625-.941,2.943-2.1,2.943Z"/><path class="cls-3" d="M31.168,26.6H63.219c-3.156,1.289-12.763,8.375-15.163,13.14H31.2Z"/><path class="cls-4" d="M56.712,64.254c-.457,4.758-.474,10.553-.474,16.638H42.346c0-6.084.228-11.88.685-16.638Z"/><polygon class="cls-1" points="30.146 53.344 35.223 53.344 35.223 55.533 33.001 55.533 33.001 57.378 35.223 57.378 35.223 59.222 33.001 59.222 33.001 61.066 35.223 61.066 35.223 63.179 30.146 63.179 30.146 53.344"/><polygon class="cls-1" points="41.958 53.344 47.035 53.344 47.035 55.533 44.814 55.533 44.814 57.378 47.035 57.378 47.035 59.222 44.814 59.222 44.814 61.066 47.035 61.066 47.035 63.179 41.958 63.179 41.958 53.344"/><polygon class="cls-1" points="54.969 53.344 60.046 53.344 60.046 55.533 57.823 55.533 57.823 57.378 60.046 57.378 60.046 59.222 57.823 59.222 57.823 61.066 60.046 61.066 60.046 63.179 54.969 63.179 54.969 53.344"/><polygon class="cls-1" points="39.031 61.066 41.253 61.066 41.253 63.179 36.176 63.179 36.176 53.344 39.031 53.344 39.031 61.066"/><polygon class="cls-1" points="47.554 53.344 48.97 63.179 52.641 63.179 54.36 53.344 52.236 53.344 51.124 59.99 50.047 53.344 47.554 53.344"/><rect class="cls-1" x="61.244" y="53.344" width="2.75" height="9.836"/><path class="cls-1" d="M63.994,56.264c.142-1.076,1.552-.789,1.552-.174v7.089H68.3V54.842c0-1.767-2.291-2.478-4.284-.922"/><path class="cls-4" d="M58,51.96c.281-3.765,5.007-9.912,9.591-11.526V25.911C54.986,32.058,46.787,41.356,45.015,51.923Z"/><path class="cls-1" d="M61.656,68.436a1.716,1.716,0,0,1-2.579,0,2.117,2.117,0,0,1,.006-2.808,1.721,1.721,0,0,1,2.573,0,1.988,1.988,0,0,1,.535,1.4,2.009,2.009,0,0,1-.535,1.408m-2.4-2.611a1.833,1.833,0,0,0,0,2.421,1.482,1.482,0,0,0,2.224,0,1.832,1.832,0,0,0,0-2.421,1.482,1.482,0,0,0-2.223,0m1.078.108a1.425,1.425,0,0,1,.546.078.547.547,0,0,1,.312.553.492.492,0,0,1-.194.43.692.692,0,0,1-.288.1.471.471,0,0,1,.338.214.631.631,0,0,1,.11.338v.159c0,.05,0,.1,0,.162a.349.349,0,0,0,.018.113l.013.028h-.329a.135.135,0,0,0,0-.021.194.194,0,0,0-.005-.025L60.847,68v-.172a.553.553,0,0,0-.19-.5.8.8,0,0,0-.394-.07h-.28v.857h-.35v-2.18Zm.385.352a.886.886,0,0,0-.431-.08h-.3v.779H60.3a.933.933,0,0,0,.339-.047.332.332,0,0,0,.209-.337.338.338,0,0,0-.134-.315"/></svg>