<?xml version="1.0" encoding="utf-8"?>
<!-- Generator: Adobe Illustrator 21.1.0, SVG Export Plug-In . SVG Version: 6.00 Build 0)  -->
<svg version="1.1" id="圖層_1" xmlns="http://www.w3.org/2000/svg" xmlns:xlink="http://www.w3.org/1999/xlink" x="0px" y="0px"
	 viewBox="0 0 100 100" style="enable-background:new 0 0 100 100;" xml:space="preserve">
<style type="text/css">
	.st0{fill:#5E5E5E;}
</style>
<title>icon</title>
<g>
	<path class="st0" d="M32.5,42.9c0.3,0.7,0.8,1.4,1.4,2c0.4,0.4,0.9,0.8,1.5,1c1,3.5,2.6,6.6,4.9,8.9c2.4,2.4,5.6,3.9,9.5,3.9h0.1
		c3.9,0,7.1-1.5,9.5-3.9c2.3-2.3,3.9-5.4,4.9-8.9c0.6-0.2,1.1-0.5,1.5-1c0.9-0.9,1.4-2,1.8-3.2c0.4-1.2,0.6-2.4,0.6-3.5
		c0-0.2,0-0.5,0-0.7v0c-0.1-1.1-0.5-2.1-1.2-2.8c-0.6-0.6-1.3-1-2.1-1.1c0.1-0.6,0.2-1.6,0.2-3.1c1-0.3,0-5.3-0.1-6
		c-1.1-6.2-7.5-9.8-12.6-10.6c0.1-0.2,0.2-0.4,0.2-0.6c0-0.8-1.2-1.5-2.7-1.5c-1.5,0-2.7,0.7-2.7,1.5c0,0.2,0.1,0.4,0.2,0.6
		c-5.2,0.8-11.5,4.4-12.6,10.6c-0.1,0.7-1.1,5.7-0.1,6c0,1.4,0.1,2.4,0.2,3.1c-0.8,0.1-1.6,0.5-2.1,1.1c-0.7,0.7-1.1,1.7-1.2,2.8
		c0,0,0,0,0,0l0,0l0,0c0,0.2,0,0.5,0,0.7C31.5,39.7,31.8,41.4,32.5,42.9z M42.5,21.9c0-1.2,0.9-2.1,2.1-2.1H55
		c1.2,0,2.1,0.9,2.1,2.1v3.4c0,1.2-0.9,2.1-2.1,2.1H44.7c-1.2,0-2.1-0.9-2.1-2.1V21.9z M33.5,37.8L33.5,37.8
		c0.1-0.8,0.3-1.3,0.6-1.6c0.3-0.3,0.7-0.5,1.2-0.5c0.6,2,1.1,4.3,2.2,4.6c0,0-0.2-2.3-0.1-5c0.6,0.9,1.4,1.8,2,2.1
		c1.8,0.7,3.9-4.1,10.6-4.5c6.6,0.4,8.8,5.2,10.6,4.5c0.5-0.2,1.1-0.8,1.7-1.6c0,2.5-0.1,4.5-0.1,4.5c1.1-0.3,1.6-2.5,2.2-4.6
		c0.5,0,0.9,0.2,1.2,0.5c0.3,0.3,0.6,0.9,0.6,1.6v0c0,0.2,0,0.3,0,0.5c0,1.1-0.3,2.6-0.8,3.8c-0.3,0.6-0.6,1.1-0.9,1.4
		C64,43.8,63.7,44,63.3,44l-0.7,0.1l-0.2,0.7c-0.9,3.5-2.4,6.5-4.5,8.6c-2.1,2.1-4.7,3.3-8.1,3.3l0,0l0,0h0l0,0l0,0
		c-3.4,0-6-1.2-8.1-3.3c-2.1-2.1-3.6-5.1-4.5-8.6L37,44.1L36.3,44c-0.4-0.1-0.7-0.2-1.1-0.6c-0.5-0.5-1-1.4-1.3-2.3
		c-0.3-1-0.5-2-0.5-2.8C33.5,38.1,33.5,37.9,33.5,37.8z"/>
	<ellipse class="st0" cx="43.4" cy="41.1" rx="2" ry="1.9"/>
	<ellipse class="st0" cx="56.3" cy="41.1" rx="2" ry="1.9"/>
	<path class="st0" d="M76.6,52.3c-0.7-1.7-1.9-1.9-1.9-1.9c-0.2,0.2-0.2,0.4-0.2,0.4l-0.9,4.3c0,0-0.4,0.9-0.9,1
		c-0.5,0.1-2.2,0.1-3.7-1c0,0-0.9-0.4-0.6-1.8c0.2-1.4,0.8-3.6,0.8-3.6s0-0.2-0.1-0.4c-0.2-0.1-0.8-0.3-1.5,0.5
		c-0.8,0.9-2.6,2.7-3,3.8c-0.4,1.1-0.9,2.3-0.2,3.8c0.6,1.4,1.1,2.9,0.5,4.6l-5.6,12.4c-0.7,1.1-1.7,1.8-3.2,2.5
		c-1.7,0.8-2.2,1.1-3,2.8c-0.8,1.7-0.1,3.6,0.5,5.4c0.7,1.7,1.9,1.9,1.9,1.9c0.2-0.2,0.2-0.4,0.2-0.4l0.9-4.3c0,0,0.4-0.9,0.9-1
		c0.5-0.2,2.2-0.1,3.7,1c0,0,0.9,0.4,0.6,1.8c-0.2,1.4-0.8,3.6-0.8,3.6s0,0.2,0.1,0.4c0.2,0.1,0.8,0.3,1.5-0.5
		c0.8-0.9,2.6-2.7,3-3.8c0.4-1.1,0.9-2.3,0.2-3.8c-0.7-1.5-1.2-3.2-0.3-5.1l5.1-11.3c0.7-1.5,1.8-2.2,3.5-3.1c1.7-0.8,2.2-1.1,3-2.8
		C77.9,55.9,77.2,54,76.6,52.3z"/>
	<path class="st0" d="M75,68.4c-0.5-1-1.2-1.8-2.3-2.7l-0.8,1.9l0,0l-3.7,8.3c-0.3,0.6-0.3,1.3,0.3,2.7c0.7,1.5,0.7,2.9,0.4,4.1l0,0
		c0,0.1-0.1,0.3-0.1,0.4c0,0.1,0,0.1,0,0.2c0,0.1-0.1,0.2-0.1,0.4c0,0.1,0,0.1-0.1,0.2c0,0.1-0.1,0.2-0.1,0.3
		c-0.1,0.1-0.1,0.3-0.2,0.4c0,0,0,0,0,0c1.9-0.3,3.7-0.6,5.3-1c0,0,0,0,0-0.1c1.3-0.3,2.5-0.7,3.5-1.1C77.1,82.3,76.4,71.1,75,68.4z
		"/>
	<path class="st0" d="M35.2,63.5c0.4-0.1,0.8-0.3,1.2-0.4c0.9,2.8,2,7.5,2.4,14.6c1.4,0.1,3.2,0.2,4.9,0.2v0
		c2.2,0.1,4.5,0.2,6.2,0.2c0.3,0,0.6,0,0.9,0c1-2.1,2.2-2.7,3.8-3.6l0.2-0.1c1.1-0.6,1.6-0.9,1.9-1.3l5.3-11.9c0-0.1,0-0.2,0-0.3
		c-1.1-0.4-2.3-0.7-3.5-1.1c-2.1,3-5,5-8.8,5c0,0,0,0,0,0c0,0,0,0,0,0c0,0,0,0,0,0c0,0,0,0,0,0c0,0,0,0,0,0c0,0,0,0,0,0
		c-3.8,0-6.7-1.9-8.8-5c-2.6,0.8-4.9,1.5-7,2.3c0,0,0,0,0,0c-5.2,2-8.1,3.9-9.3,6.3c-1.4,2.7-2.1,14-2.1,14c1,0.4,2.2,0.8,3.5,1.1
		c0,0,0,0,0,0.1c5.7,1.5,14,2.2,22.5,2.3c0.1,0,0.2,0,0.3,0c0.4,0,0.7,0,1.1,0c0.4,0,0.7,0,1.1,0c0,0,0.1,0,0.1,0
		c-0.1-0.2-0.2-0.5-0.3-0.8c0,0,0,0,0,0c-0.1-0.3-0.4-1.1-0.3-0.9l-0.3,0l-1.6,0C42,84,35.8,83.6,31,82.7l0.2-2.1
		c0,0,2.4-2.6,2.1-8.1c-0.2-3.9-0.6-6.3-1-7.9c0.8-0.4,1.6-0.7,2.6-1.1C35,63.6,35.1,63.5,35.2,63.5z"/>
</g>
</svg>
