<?xml version="1.0" encoding="utf-8"?>
<!-- Generator: Adobe Illustrator 21.1.0, SVG Export Plug-In . SVG Version: 6.00 Build 0)  -->
<svg version="1.1" id="圖層_1" xmlns="http://www.w3.org/2000/svg" xmlns:xlink="http://www.w3.org/1999/xlink" x="0px" y="0px"
	 viewBox="0 0 100 100" style="enable-background:new 0 0 100 100;" xml:space="preserve">
<style type="text/css">
	.st0{fill:#5E5E5E;}
</style>
<title>icon</title>
<g>
	<path class="st0" d="M79.3,37.2c-1.1,0-2.1,0.9-2.1,2.1c0,3.4,0,6.4,0,9.7H61.9v-9.7c0-1.1-0.9-2.1-2.1-2.1s-2.1,0.9-2.1,2.1V49
		H42.5v-9.7c0-1.1-0.9-2.1-2.1-2.1s-2.1,0.9-2.1,2.1V49H23.1c0-3.3,0-6.3,0-9.7c0-1.1-0.9-2.1-2.1-2.1S19,38.1,19,39.3
		c0,4.1,0,7.6,0,11.7c0,1.1,0.8,1.9,1.8,2.1c0.2,0,0.3,0.1,0.5,0.1h17.1v9.7c0,1.1,0.9,2.1,2.1,2.1s2.1-0.9,2.1-2.1v-9.7h15.3v9.7
		c0,1.1,0.9,2.1,2.1,2.1s2.1-0.9,2.1-2.1v-9.7H79c0.2,0,0.3,0,0.5-0.1c1-0.1,1.8-1,1.8-2.1c0-4.1,0-7.6,0-11.7
		C81.3,38.1,80.4,37.2,79.3,37.2z"/>
	<path class="st0" d="M40.4,34c4.2,0,7.6-3.4,7.6-7.6c0-4.2-3.4-7.6-7.6-7.6c-4.2,0-7.6,3.4-7.6,7.6C32.8,30.5,36.2,34,40.4,34z
		 M38.5,22.4c0-0.2,0-0.3,0.1-0.4c0.1-0.1,0.2-0.1,0.5-0.2l1-0.4c0.1,0,0.2,0,0.2-0.1c0.1,0,0.2,0,0.2,0h0.8c0.2,0,0.4,0,0.4,0.1
		c0,0.1,0.1,0.3,0.1,0.5v8.4c0,0.2,0,0.4-0.1,0.4c0,0.1-0.2,0.1-0.4,0.1h-0.9c-0.2,0-0.3,0-0.4-0.1c-0.1-0.1-0.1-0.2-0.1-0.5v-6.9
		c0-0.1,0-0.1-0.1-0.1h-1c-0.1,0-0.2,0-0.2-0.1c-0.1,0-0.1-0.1-0.1-0.1c0,0-0.1-0.1-0.1-0.2V22.4z"/>
	<path class="st0" d="M40.4,68.2c-4.2,0-7.6,3.4-7.6,7.6c0,4.2,3.4,7.6,7.6,7.6c4.2,0,7.6-3.4,7.6-7.6
		C48.1,71.6,44.6,68.2,40.4,68.2z M39.3,78.4H43c0.2,0,0.3,0,0.4,0.1c0.1,0,0.1,0.2,0.1,0.3v0.8c0,0.2,0,0.3-0.1,0.3
		C43.4,80,43.3,80,43.2,80h-5.8c-0.1,0-0.2,0-0.3-0.1c-0.1-0.1-0.1-0.2-0.1-0.4V79c0-0.5,0.1-1,0.3-1.4c0.2-0.4,0.4-0.8,0.7-1.1
		c0.3-0.3,0.6-0.6,0.9-0.9c0.3-0.3,0.6-0.5,0.9-0.6c0.2-0.1,0.5-0.3,0.7-0.4c0.2-0.2,0.5-0.3,0.7-0.5c0.2-0.2,0.4-0.3,0.5-0.5
		c0.1-0.2,0.2-0.3,0.2-0.5c0-0.8-0.5-1.1-1.6-1.1c-0.5,0-0.9,0.1-1.2,0.2c-0.3,0.1-0.6,0.3-0.8,0.4c-0.1,0-0.1-0.1-0.2-0.2
		c-0.1-0.1-0.2-0.3-0.2-0.5c-0.1-0.2-0.1-0.4-0.1-0.5c0-0.2,0-0.3,0-0.3c0.1-0.1,0.2-0.1,0.4-0.2c0.2-0.1,0.3-0.1,0.6-0.2
		c0.2-0.1,0.5-0.1,0.8-0.2c0.3,0,0.7-0.1,1.1-0.1c1,0,1.7,0.2,2.3,0.6c0.6,0.4,0.9,1,0.9,1.9c0,0.4-0.1,0.8-0.3,1.1
		c-0.2,0.3-0.4,0.6-0.7,0.9c-0.3,0.3-0.6,0.5-0.9,0.7c-0.3,0.2-0.7,0.4-1,0.6c-0.4,0.2-0.8,0.5-1.1,0.9c-0.3,0.3-0.5,0.8-0.5,1.3
		C39.1,78.4,39.2,78.4,39.3,78.4z"/>
	<path class="st0" d="M59.9,34c4.2,0,7.6-3.4,7.6-7.6c0-4.2-3.4-7.6-7.6-7.6s-7.6,3.4-7.6,7.6C52.3,30.5,55.7,34,59.9,34z
		 M57.3,30.3c0-0.2,0.1-0.3,0.1-0.5c0.1-0.2,0.1-0.3,0.2-0.5c0.1-0.1,0.1-0.2,0.2-0.2c0.3,0.1,0.6,0.2,1,0.4
		c0.4,0.1,0.8,0.2,1.2,0.2c0.5,0,0.9-0.1,1.2-0.3c0.3-0.2,0.4-0.5,0.4-0.9c0-0.2-0.1-0.4-0.1-0.6c-0.1-0.2-0.2-0.3-0.4-0.4
		c-0.2-0.1-0.4-0.2-0.6-0.3C60.2,27,60,27,59.7,27c-0.2,0-0.3,0-0.4,0c-0.1,0-0.1-0.1-0.1-0.3V26c0-0.2,0.1-0.3,0.2-0.4
		c0.1,0,0.2-0.1,0.4-0.1c0.6,0,1-0.2,1.3-0.4c0.3-0.2,0.5-0.6,0.5-1.1c0-0.3-0.2-0.6-0.5-0.8c-0.3-0.2-0.7-0.3-1.3-0.3
		c-0.3,0-0.7,0.1-1,0.2c-0.3,0.1-0.6,0.2-0.8,0.4c-0.1,0-0.1,0-0.2-0.1c-0.1-0.1-0.2-0.3-0.2-0.4c-0.1-0.2-0.1-0.3-0.1-0.5
		c0-0.2,0-0.3,0.1-0.3c0.1-0.1,0.2-0.2,0.4-0.2c0.1-0.1,0.3-0.1,0.5-0.2c0.2-0.1,0.4-0.1,0.7-0.2c0.3,0,0.6-0.1,1-0.1
		c1,0,1.8,0.2,2.4,0.7c0.5,0.4,0.8,1,0.8,1.8c0,0.6-0.1,1.1-0.4,1.5c-0.3,0.4-0.6,0.7-1,0.9c0.4,0.2,0.8,0.5,1,0.9
		c0.3,0.4,0.4,0.8,0.4,1.4c0,0.4-0.1,0.8-0.2,1.2c-0.2,0.3-0.4,0.6-0.7,0.8c-0.3,0.2-0.6,0.4-1,0.5c-0.4,0.1-0.8,0.2-1.2,0.2
		c-0.7,0-1.2-0.1-1.8-0.2c-0.5-0.1-0.9-0.3-1.2-0.4C57.3,30.6,57.3,30.5,57.3,30.3z"/>
	<path class="st0" d="M59.9,68.2c-4.2,0-7.6,3.4-7.6,7.6c0,4.2,3.4,7.6,7.6,7.6s7.6-3.4,7.6-7.6C67.5,71.6,64.1,68.2,59.9,68.2z
		 M62.5,77.8c0,0.2,0,0.3-0.1,0.4c0,0.1-0.2,0.1-0.3,0.1h-0.4v1.4c0,0.1,0,0.2-0.1,0.3C61.6,80,61.5,80,61.3,80h-0.6
		c-0.2,0-0.3,0-0.4-0.1c-0.1-0.1-0.1-0.2-0.1-0.3v-1.4h-3.8c-0.2,0-0.3,0-0.4-0.1c-0.1,0-0.1-0.1-0.1-0.3v-0.6c0-0.1,0-0.2,0-0.3
		c0-0.1,0.1-0.1,0.1-0.2l3.9-5.8c0.1-0.1,0.2-0.2,0.3-0.3c0.1-0.1,0.2-0.2,0.3-0.2h0.9c0.2,0,0.3,0,0.3,0.1c0,0.1,0,0.2,0,0.4v5.8
		h0.4c0.2,0,0.3,0,0.3,0.1c0,0,0.1,0.2,0.1,0.3V77.8z"/>
	<path class="st0" d="M57.9,76.8h2.3v-3.5c-0.4,0.6-0.8,1.2-1.2,1.7C58.7,75.6,58.3,76.2,57.9,76.8z"/>
	<path class="st0" d="M79.7,18.7c-4.2,0-7.6,3.4-7.6,7.6c0,4.2,3.4,7.6,7.6,7.6c4.2,0,7.6-3.4,7.6-7.6
		C87.3,22.1,83.9,18.7,79.7,18.7z M82.7,29.3c-0.2,0.4-0.4,0.7-0.7,1c-0.3,0.3-0.6,0.5-1.1,0.6c-0.4,0.2-0.9,0.2-1.4,0.2
		c-0.5,0-0.9,0-1.2-0.1c-0.3-0.1-0.6-0.1-0.9-0.2c-0.2-0.1-0.4-0.1-0.5-0.2c-0.1-0.1-0.2-0.1-0.3-0.2c-0.1,0-0.1-0.2-0.1-0.3
		c0-0.2,0.1-0.4,0.1-0.5c0.1-0.2,0.1-0.3,0.2-0.5c0.1-0.1,0.2-0.2,0.3-0.1c0.2,0.1,0.5,0.2,0.8,0.3c0.4,0.1,0.8,0.2,1.3,0.2
		c0.5,0,0.9-0.1,1.2-0.4c0.3-0.3,0.4-0.6,0.4-1c0-0.7-0.4-1.2-1.1-1.5c-0.2-0.1-0.6-0.2-0.9-0.3c-0.4-0.1-0.7-0.2-1.1-0.2
		c-0.2,0-0.3-0.1-0.5-0.2c-0.1-0.1-0.2-0.3-0.2-0.5v-3.4c0-0.2,0.1-0.3,0.2-0.4c0.1-0.1,0.2-0.1,0.3-0.1h4.7c0.1,0,0.2,0,0.3,0.1
		c0.1,0.1,0.1,0.2,0.1,0.3v0.8c0,0.2,0,0.3-0.1,0.3c-0.1,0-0.2,0.1-0.4,0.1H79c-0.1,0-0.2,0-0.2,0.1v1.5c0,0,0,0,0.1,0.1
		c0.4,0,0.7,0.1,1.1,0.2c0.4,0.1,0.7,0.2,1,0.4c0.5,0.2,1,0.6,1.3,1c0.4,0.5,0.5,1.1,0.5,1.8C82.9,28.5,82.8,28.9,82.7,29.3z"/>
	<path class="st0" d="M28.4,26.3c0-4.2-3.4-7.6-7.6-7.6c-4.2,0-7.6,3.4-7.6,7.6c0,4.2,3.4,7.6,7.6,7.6C25,34,28.4,30.5,28.4,26.3z
		 M19.8,30c0,0.2,0,0.4-0.1,0.5c-0.1,0.1-0.2,0.1-0.4,0.1h-0.9c-0.2,0-0.4,0-0.4-0.2c0-0.1-0.1-0.3-0.1-0.5v-8.5
		c0-0.2,0-0.3,0.1-0.4c0.1-0.1,0.2-0.1,0.4-0.1h2.7c1.3,0,2.2,0.3,2.8,0.8c0.6,0.5,0.9,1.2,0.9,2.1c0,0.4-0.1,0.7-0.2,1
		c-0.1,0.3-0.3,0.5-0.5,0.7c-0.2,0.2-0.4,0.4-0.6,0.5c-0.2,0.1-0.4,0.2-0.6,0.3l1.8,3.5c0.1,0.3,0.2,0.5,0.2,0.6
		c0,0.1-0.2,0.2-0.4,0.2h-1.1c-0.2,0-0.3,0-0.3-0.1c-0.1-0.1-0.1-0.2-0.2-0.3l-1.7-3.4c0,0,0,0-0.1,0h-1.4V30z"/>
	<path class="st0" d="M22.6,24.8c0.3-0.2,0.4-0.6,0.4-1c0-0.5-0.2-0.9-0.6-1.1c-0.4-0.2-0.8-0.3-1.4-0.3h-1.2c0,0-0.1,0-0.1,0.1v2.6
		c0,0.1,0,0.1,0.1,0.1h1.6C22,25.1,22.3,25,22.6,24.8z"/>
</g>
</svg>
