<?xml version="1.0" encoding="utf-8"?>
<!-- Generator: Adobe Illustrator 21.1.0, SVG Export Plug-In . SVG Version: 6.00 Build 0)  -->
<svg version="1.1" id="圖層_1" xmlns="http://www.w3.org/2000/svg" xmlns:xlink="http://www.w3.org/1999/xlink" x="0px" y="0px"
	 viewBox="0 0 100 100" style="enable-background:new 0 0 100 100;" xml:space="preserve">
<style type="text/css">
	.st0{fill:#5E5E5E;}
</style>
<title>icon</title>
<g>
	<path class="st0" d="M85.4,30.5H14.6c-1.5,0-2.8,1.2-2.8,2.8v2.7c0,1.5,1.2,2.7,2.7,2.8v37.6c0,1.4,1.2,2.6,2.6,2.6h65.9
		c1.4,0,2.6-1.2,2.6-2.6V38.8c1.5-0.1,2.7-1.3,2.7-2.8v-2.7C88.2,31.8,86.9,30.5,85.4,30.5z M37.3,57.9c0,0.6-0.5,1-1,1H32v4.3
		c0,0.6-0.5,1-1,1H29c-0.6,0-1-0.5-1-1v-4.3h-4.3c-0.6,0-1-0.5-1-1v-1.9c0-0.6,0.5-1,1-1H28v-4.3c0-0.6,0.5-1,1-1H31
		c0.6,0,1,0.5,1,1v4.3h4.3c0.6,0,1,0.5,1,1V57.9z M57.6,54.9L45.9,70.5c-0.2,0.2-0.2,0.2-0.2-0.1l2.2-11.8c0.1-0.3-0.1-0.5-0.4-0.5
		h-4.8c-0.3,0-0.4-0.2-0.4-0.5l4.8-13.2c0.1-0.3,0.3-0.5,0.6-0.5l9.2,0.3c0.3,0,0.4,0.2,0.3,0.5L52.6,54c-0.1,0.3,0,0.5,0.3,0.5h4.5
		C57.6,54.5,57.7,54.7,57.6,54.9z M77.3,57.9c0,0.6-0.5,1-1,1H63.7c-0.6,0-1-0.5-1-1v-1.9c0-0.6,0.5-1,1-1h12.5c0.6,0,1,0.5,1,1
		V57.9z"/>
	<path class="st0" d="M36,22.1c0-0.6-0.5-1.1-1.1-1.1H25c-0.6,0-1.1,0.5-1.1,1.1v5.5h12V22.1z"/>
	<path class="st0" d="M76,22.1c0-0.6-0.5-1.1-1.1-1.1h-9.9c-0.6,0-1.1,0.5-1.1,1.1v5.5h12V22.1z"/>
</g>
</svg>
