<?xml version="1.0" encoding="utf-8"?>
<!-- Generator: Adobe Illustrator 21.1.0, SVG Export Plug-In . SVG Version: 6.00 Build 0)  -->
<svg version="1.1" id="圖層_1" xmlns="http://www.w3.org/2000/svg" xmlns:xlink="http://www.w3.org/1999/xlink" x="0px" y="0px"
	 viewBox="0 0 100 100" style="enable-background:new 0 0 100 100;" xml:space="preserve">
<style type="text/css">
	.st0{fill:#5E5E5E;}
</style>
<title>icon</title>
<g>
	<path class="st0" d="M61.4,60.7c-6.4,0-11.5,5.2-11.5,11.5c0,6.4,5.2,11.5,11.5,11.5c6.4,0,11.5-5.2,11.5-11.5
		C72.9,65.9,67.8,60.7,61.4,60.7z M61.4,77.2c-2.7,0-5-2.2-5-5c0-2.7,2.2-5,5-5c2.7,0,5,2.2,5,5C66.3,75,64.1,77.2,61.4,77.2z"/>
	
		<ellipse transform="matrix(8.119458e-02 -0.9967 0.9967 8.119458e-02 -0.2783 47.4636)" class="st0" cx="25.6" cy="23.9" rx="7.7" ry="7.7"/>
	<path class="st0" d="M42.2,41.6c-0.8-1.6-2.6-2.3-4.2-1.5c-0.1,0-6.1,1.8-6.2,1.8c-0.9-0.6-7.2-6.7-7.5-6.9
		c-1.5-1.2-3.6-3.4-6.7-2.4c-3.1,1-4.5,6-5.7,10.8c-1.4,5.5-4.1,9.3-1.9,14c0.5,1.1,1.1,1.8,1.8,2.3c0.1,0.7,0.3,1.7,0.3,3
		c0.1,2.8,0,16.7,0,16.7c-0.1,1.9,1.4,3.5,3.3,3.5c1.9,0.1,3.5-1.4,3.5-3.3l0.9-19.8c1.2-7.3,2.6-11.2,4.2-15.9
		c0.4,0.4,3.5,3,5.1,3.9c0.3,0.1,1.5,1,3.7,0.5c1.2-0.3,7.9-2.3,7.9-2.3C42.2,45,42.9,43.1,42.2,41.6z"/>
	<path class="st0" d="M63.7,42.6c-0.6,0.3-1.4,0.5-2.4,0.8c-0.5-0.5-1.1-1.1-1.6-1.8c-2.2-2.4-4.8-5.5-7.5-8.2
		c-1.4-1.4-2.8-2.6-4.2-3.7c-1.4-1.1-2.9-2-4.4-2.6l0,0c-0.8-0.3-1.5-0.4-2.1-0.5c-1.2-0.2-2.3,0.6-2.4,1.8
		c-0.2,1.2,0.6,2.3,1.8,2.4c0.5,0.1,0.9,0.2,1.3,0.3c1.3,0.5,2.8,1.5,4.5,2.9c2.5,2.1,5.1,5,7.5,7.8c0.9,1,1.7,1.9,2.5,2.8
		c-8.1,2.1-19.1,4.7-20.5,7.9c0,0-2.5,5.3-1.7,13.9l-0.1,0c0.4,2.2,1,5.1,2.8,5.7c0.9,0.3,3.8,0.5,9.6,1.1c0-0.3,0-0.7,0-1
		c0-8.1,6.5-14.6,14.6-14.6c8.1,0,14.6,6.5,14.6,14.6c0,0.3,0,0.7-0.1,1h14.9V30.5C82.1,32.6,69.9,40,63.7,42.6z M44.4,54.4
		c-1.4,0.8-7.1,4-7.1,4s0.5-3.5,1.3-4.9c0.4-0.6,4.1-1.2,7.8-1.7C49.6,51.5,46.4,53.3,44.4,54.4z"/>
</g>
</svg>
